# Blender 3.6.4
# www.blender.org
mtllib monkey.mtl
o Suzanne
v 0.437500 0.164062 0.765625
v -0.437500 0.164062 0.765625
v 0.500000 0.093750 0.687500
v -0.500000 0.093750 0.687500
v 0.546875 0.054688 0.578125
v -0.546875 0.054688 0.578125
v 0.351562 -0.023438 0.617188
v -0.351562 -0.023438 0.617188
v 0.351562 0.031250 0.718750
v -0.351562 0.031250 0.718750
v 0.351562 0.132812 0.781250
v -0.351562 0.132812 0.781250
v 0.273438 0.164062 0.796875
v -0.273438 0.164062 0.796875
v 0.203125 0.093750 0.742188
v -0.203125 0.093750 0.742188
v 0.156250 0.054688 0.648438
v -0.156250 0.054688 0.648438
v 0.078125 0.242188 0.656250
v -0.078125 0.242188 0.656250
v 0.140625 0.242188 0.742188
v -0.140625 0.242188 0.742188
v 0.242188 0.242188 0.796875
v -0.242188 0.242188 0.796875
v 0.273438 0.328125 0.796875
v -0.273438 0.328125 0.796875
v 0.203125 0.390625 0.742188
v -0.203125 0.390625 0.742188
v 0.156250 0.437500 0.648438
v -0.156250 0.437500 0.648438
v 0.351562 0.515625 0.617188
v -0.351562 0.515625 0.617188
v 0.351562 0.453125 0.718750
v -0.351562 0.453125 0.718750
v 0.351562 0.359375 0.781250
v -0.351562 0.359375 0.781250
v 0.437500 0.328125 0.765625
v -0.437500 0.328125 0.765625
v 0.500000 0.390625 0.687500
v -0.500000 0.390625 0.687500
v 0.546875 0.437500 0.578125
v -0.546875 0.437500 0.578125
v 0.625000 0.242188 0.562500
v -0.625000 0.242188 0.562500
v 0.562500 0.242188 0.671875
v -0.562500 0.242188 0.671875
v 0.468750 0.242188 0.757812
v -0.468750 0.242188 0.757812
v 0.476562 0.242188 0.773438
v -0.476562 0.242188 0.773438
v 0.445312 0.335938 0.781250
v -0.445312 0.335938 0.781250
v 0.351562 0.375000 0.804688
v -0.351562 0.375000 0.804688
v 0.265625 0.335938 0.820312
v -0.265625 0.335938 0.820312
v 0.226562 0.242188 0.820312
v -0.226562 0.242188 0.820312
v 0.265625 0.156250 0.820312
v -0.265625 0.156250 0.820312
v 0.351562 0.242188 0.828125
v -0.351562 0.242188 0.828125
v 0.351562 0.117188 0.804688
v -0.351562 0.117188 0.804688
v 0.445312 0.156250 0.781250
v -0.445312 0.156250 0.781250
v 0.000000 0.429688 0.742188
v 0.000000 0.351562 0.820312
v 0.000000 -0.679688 0.734375
v 0.000000 -0.320312 0.781250
v 0.000000 -0.187500 0.796875
v 0.000000 -0.773438 0.718750
v 0.000000 0.406250 0.601562
v 0.000000 0.570312 0.570312
v 0.000000 0.898438 -0.546875
v 0.000000 0.562500 -0.851562
v 0.000000 0.070312 -0.828125
v 0.000000 -0.382812 -0.351562
v 0.203125 -0.187500 0.562500
v -0.203125 -0.187500 0.562500
v 0.312500 -0.437500 0.570312
v -0.312500 -0.437500 0.570312
v 0.351562 -0.695312 0.570312
v -0.351562 -0.695312 0.570312
v 0.367188 -0.890625 0.531250
v -0.367188 -0.890625 0.531250
v 0.328125 -0.945312 0.523438
v -0.328125 -0.945312 0.523438
v 0.179688 -0.968750 0.554688
v -0.179688 -0.968750 0.554688
v 0.000000 -0.984375 0.578125
v 0.437500 -0.140625 0.531250
v -0.437500 -0.140625 0.531250
v 0.632812 -0.039062 0.539062
v -0.632812 -0.039062 0.539062
v 0.828125 0.148438 0.445312
v -0.828125 0.148438 0.445312
v 0.859375 0.429688 0.593750
v -0.859375 0.429688 0.593750
v 0.710938 0.484375 0.625000
v -0.710938 0.484375 0.625000
v 0.492188 0.601562 0.687500
v -0.492188 0.601562 0.687500
v 0.320312 0.757812 0.734375
v -0.320312 0.757812 0.734375
v 0.156250 0.718750 0.757812
v -0.156250 0.718750 0.757812
v 0.062500 0.492188 0.750000
v -0.062500 0.492188 0.750000
v 0.164062 0.414062 0.773438
v -0.164062 0.414062 0.773438
v 0.125000 0.304688 0.765625
v -0.125000 0.304688 0.765625
v 0.203125 0.093750 0.742188
v -0.203125 0.093750 0.742188
v 0.375000 0.015625 0.703125
v -0.375000 0.015625 0.703125
v 0.492188 0.062500 0.671875
v -0.492188 0.062500 0.671875
v 0.625000 0.187500 0.648438
v -0.625000 0.187500 0.648438
v 0.640625 0.296875 0.648438
v -0.640625 0.296875 0.648438
v 0.601562 0.375000 0.664062
v -0.601562 0.375000 0.664062
v 0.429688 0.437500 0.718750
v -0.429688 0.437500 0.718750
v 0.250000 0.468750 0.757812
v -0.250000 0.468750 0.757812
v 0.000000 -0.765625 0.734375
v 0.109375 -0.718750 0.734375
v -0.109375 -0.718750 0.734375
v 0.117188 -0.835938 0.710938
v -0.117188 -0.835938 0.710938
v 0.062500 -0.882812 0.695312
v -0.062500 -0.882812 0.695312
v 0.000000 -0.890625 0.687500
v 0.000000 -0.195312 0.750000
v 0.000000 -0.140625 0.742188
v 0.101562 -0.148438 0.742188
v -0.101562 -0.148438 0.742188
v 0.125000 -0.226562 0.750000
v -0.125000 -0.226562 0.750000
v 0.085938 -0.289062 0.742188
v -0.085938 -0.289062 0.742188
v 0.398438 -0.046875 0.671875
v -0.398438 -0.046875 0.671875
v 0.617188 0.054688 0.625000
v -0.617188 0.054688 0.625000
v 0.726562 0.203125 0.601562
v -0.726562 0.203125 0.601562
v 0.742188 0.375000 0.656250
v -0.742188 0.375000 0.656250
v 0.687500 0.414062 0.726562
v -0.687500 0.414062 0.726562
v 0.437500 0.546875 0.796875
v -0.437500 0.546875 0.796875
v 0.312500 0.640625 0.835938
v -0.312500 0.640625 0.835938
v 0.203125 0.617188 0.851562
v -0.203125 0.617188 0.851562
v 0.101562 0.429688 0.843750
v -0.101562 0.429688 0.843750
v 0.125000 -0.101562 0.812500
v -0.125000 -0.101562 0.812500
v 0.210938 -0.445312 0.710938
v -0.210938 -0.445312 0.710938
v 0.250000 -0.703125 0.687500
v -0.250000 -0.703125 0.687500
v 0.265625 -0.820312 0.664062
v -0.265625 -0.820312 0.664062
v 0.234375 -0.914062 0.632812
v -0.234375 -0.914062 0.632812
v 0.164062 -0.929688 0.632812
v -0.164062 -0.929688 0.632812
v 0.000000 -0.945312 0.640625
v 0.000000 0.046875 0.726562
v 0.000000 0.210938 0.765625
v 0.328125 0.476562 0.742188
v -0.328125 0.476562 0.742188
v 0.164062 0.140625 0.750000
v -0.164062 0.140625 0.750000
v 0.132812 0.210938 0.757812
v -0.132812 0.210938 0.757812
v 0.117188 -0.687500 0.734375
v -0.117188 -0.687500 0.734375
v 0.078125 -0.445312 0.750000
v -0.078125 -0.445312 0.750000
v 0.000000 -0.445312 0.750000
v 0.000000 -0.328125 0.742188
v 0.093750 -0.273438 0.781250
v -0.093750 -0.273438 0.781250
v 0.132812 -0.226562 0.796875
v -0.132812 -0.226562 0.796875
v 0.109375 -0.132812 0.781250
v -0.109375 -0.132812 0.781250
v 0.039062 -0.125000 0.781250
v -0.039062 -0.125000 0.781250
v 0.000000 -0.203125 0.828125
v 0.046875 -0.148438 0.812500
v -0.046875 -0.148438 0.812500
v 0.093750 -0.156250 0.812500
v -0.093750 -0.156250 0.812500
v 0.109375 -0.226562 0.828125
v -0.109375 -0.226562 0.828125
v 0.078125 -0.250000 0.804688
v -0.078125 -0.250000 0.804688
v 0.000000 -0.289062 0.804688
v 0.257812 -0.312500 0.554688
v -0.257812 -0.312500 0.554688
v 0.164062 -0.242188 0.710938
v -0.164062 -0.242188 0.710938
v 0.179688 -0.312500 0.710938
v -0.179688 -0.312500 0.710938
v 0.234375 -0.250000 0.554688
v -0.234375 -0.250000 0.554688
v 0.000000 -0.875000 0.687500
v 0.046875 -0.867188 0.687500
v -0.046875 -0.867188 0.687500
v 0.093750 -0.820312 0.710938
v -0.093750 -0.820312 0.710938
v 0.093750 -0.742188 0.726562
v -0.093750 -0.742188 0.726562
v 0.000000 -0.781250 0.656250
v 0.093750 -0.750000 0.664062
v -0.093750 -0.750000 0.664062
v 0.093750 -0.812500 0.640625
v -0.093750 -0.812500 0.640625
v 0.046875 -0.851562 0.632812
v -0.046875 -0.851562 0.632812
v 0.000000 -0.859375 0.632812
v 0.171875 0.218750 0.781250
v -0.171875 0.218750 0.781250
v 0.187500 0.156250 0.773438
v -0.187500 0.156250 0.773438
v 0.335938 0.429688 0.757812
v -0.335938 0.429688 0.757812
v 0.273438 0.421875 0.773438
v -0.273438 0.421875 0.773438
v 0.421875 0.398438 0.773438
v -0.421875 0.398438 0.773438
v 0.562500 0.351562 0.695312
v -0.562500 0.351562 0.695312
v 0.585938 0.289062 0.687500
v -0.585938 0.289062 0.687500
v 0.578125 0.195312 0.679688
v -0.578125 0.195312 0.679688
v 0.476562 0.101562 0.718750
v -0.476562 0.101562 0.718750
v 0.375000 0.062500 0.742188
v -0.375000 0.062500 0.742188
v 0.226562 0.109375 0.781250
v -0.226562 0.109375 0.781250
v 0.179688 0.296875 0.781250
v -0.179688 0.296875 0.781250
v 0.210938 0.375000 0.781250
v -0.210938 0.375000 0.781250
v 0.234375 0.359375 0.757812
v -0.234375 0.359375 0.757812
v 0.195312 0.296875 0.757812
v -0.195312 0.296875 0.757812
v 0.242188 0.125000 0.757812
v -0.242188 0.125000 0.757812
v 0.375000 0.085938 0.726562
v -0.375000 0.085938 0.726562
v 0.460938 0.117188 0.703125
v -0.460938 0.117188 0.703125
v 0.546875 0.210938 0.671875
v -0.546875 0.210938 0.671875
v 0.554688 0.281250 0.671875
v -0.554688 0.281250 0.671875
v 0.531250 0.335938 0.679688
v -0.531250 0.335938 0.679688
v 0.414062 0.390625 0.750000
v -0.414062 0.390625 0.750000
v 0.281250 0.398438 0.765625
v -0.281250 0.398438 0.765625
v 0.335938 0.406250 0.750000
v -0.335938 0.406250 0.750000
v 0.203125 0.171875 0.750000
v -0.203125 0.171875 0.750000
v 0.195312 0.226562 0.750000
v -0.195312 0.226562 0.750000
v 0.109375 0.460938 0.609375
v -0.109375 0.460938 0.609375
v 0.195312 0.664062 0.617188
v -0.195312 0.664062 0.617188
v 0.335938 0.687500 0.593750
v -0.335938 0.687500 0.593750
v 0.484375 0.554688 0.554688
v -0.484375 0.554688 0.554688
v 0.679688 0.453125 0.492188
v -0.679688 0.453125 0.492188
v 0.796875 0.406250 0.460938
v -0.796875 0.406250 0.460938
v 0.773438 0.164062 0.375000
v -0.773438 0.164062 0.375000
v 0.601562 0.000000 0.414062
v -0.601562 0.000000 0.414062
v 0.437500 -0.093750 0.468750
v -0.437500 -0.093750 0.468750
v 0.000000 0.898438 0.289062
v 0.000000 0.984375 -0.078125
v 0.000000 -0.195312 -0.671875
v 0.000000 -0.460938 0.187500
v 0.000000 -0.976562 0.460938
v 0.000000 -0.804688 0.343750
v 0.000000 -0.570312 0.320312
v 0.000000 -0.484375 0.281250
v 0.851562 0.234375 0.054688
v -0.851562 0.234375 0.054688
v 0.859375 0.320312 -0.046875
v -0.859375 0.320312 -0.046875
v 0.773438 0.265625 -0.437500
v -0.773438 0.265625 -0.437500
v 0.460938 0.437500 -0.703125
v -0.460938 0.437500 -0.703125
v 0.734375 -0.046875 0.070312
v -0.734375 -0.046875 0.070312
v 0.593750 -0.125000 -0.164062
v -0.593750 -0.125000 -0.164062
v 0.640625 -0.007812 -0.429688
v -0.640625 -0.007812 -0.429688
v 0.335938 0.054688 -0.664062
v -0.335938 0.054688 -0.664062
v 0.234375 -0.351562 0.406250
v -0.234375 -0.351562 0.406250
v 0.179688 -0.414062 0.257812
v -0.179688 -0.414062 0.257812
v 0.289062 -0.710938 0.382812
v -0.289062 -0.710938 0.382812
v 0.250000 -0.500000 0.390625
v -0.250000 -0.500000 0.390625
v 0.328125 -0.914062 0.398438
v -0.328125 -0.914062 0.398438
v 0.140625 -0.757812 0.367188
v -0.140625 -0.757812 0.367188
v 0.125000 -0.539062 0.359375
v -0.125000 -0.539062 0.359375
v 0.164062 -0.945312 0.437500
v -0.164062 -0.945312 0.437500
v 0.218750 -0.281250 0.429688
v -0.218750 -0.281250 0.429688
v 0.210938 -0.226562 0.468750
v -0.210938 -0.226562 0.468750
v 0.203125 -0.171875 0.500000
v -0.203125 -0.171875 0.500000
v 0.210938 -0.390625 0.164062
v -0.210938 -0.390625 0.164062
v 0.296875 -0.312500 -0.265625
v -0.296875 -0.312500 -0.265625
v 0.343750 -0.148438 -0.539062
v -0.343750 -0.148438 -0.539062
v 0.453125 0.867188 -0.382812
v -0.453125 0.867188 -0.382812
v 0.453125 0.929688 -0.070312
v -0.453125 0.929688 -0.070312
v 0.453125 0.851562 0.234375
v -0.453125 0.851562 0.234375
v 0.460938 0.523438 0.429688
v -0.460938 0.523438 0.429688
v 0.726562 0.406250 0.335938
v -0.726562 0.406250 0.335938
v 0.632812 0.453125 0.281250
v -0.632812 0.453125 0.281250
v 0.640625 0.703125 0.054688
v -0.640625 0.703125 0.054688
v 0.796875 0.562500 0.125000
v -0.796875 0.562500 0.125000
v 0.796875 0.617188 -0.117188
v -0.796875 0.617188 -0.117188
v 0.640625 0.750000 -0.195312
v -0.640625 0.750000 -0.195312
v 0.640625 0.679688 -0.445312
v -0.640625 0.679688 -0.445312
v 0.796875 0.539062 -0.359375
v -0.796875 0.539062 -0.359375
v 0.617188 0.328125 -0.585938
v -0.617188 0.328125 -0.585938
v 0.484375 0.023438 -0.546875
v -0.484375 0.023438 -0.546875
v 0.820312 0.328125 -0.203125
v -0.820312 0.328125 -0.203125
v 0.406250 -0.171875 0.148438
v -0.406250 -0.171875 0.148438
v 0.429688 -0.195312 -0.210938
v -0.429688 -0.195312 -0.210938
v 0.890625 0.406250 -0.234375
v -0.890625 0.406250 -0.234375
v 0.773438 -0.140625 -0.125000
v -0.773438 -0.140625 -0.125000
v 1.039062 -0.101562 -0.328125
v -1.039062 -0.101562 -0.328125
v 1.281250 0.054688 -0.429688
v -1.281250 0.054688 -0.429688
v 1.351562 0.320312 -0.421875
v -1.351562 0.320312 -0.421875
v 1.234375 0.507812 -0.421875
v -1.234375 0.507812 -0.421875
v 1.023438 0.476562 -0.312500
v -1.023438 0.476562 -0.312500
v 1.015625 0.414062 -0.289062
v -1.015625 0.414062 -0.289062
v 1.187500 0.437500 -0.390625
v -1.187500 0.437500 -0.390625
v 1.265625 0.289062 -0.406250
v -1.265625 0.289062 -0.406250
v 1.210938 0.078125 -0.406250
v -1.210938 0.078125 -0.406250
v 1.031250 -0.039062 -0.304688
v -1.031250 -0.039062 -0.304688
v 0.828125 -0.070312 -0.132812
v -0.828125 -0.070312 -0.132812
v 0.921875 0.359375 -0.218750
v -0.921875 0.359375 -0.218750
v 0.945312 0.304688 -0.289062
v -0.945312 0.304688 -0.289062
v 0.882812 -0.023438 -0.210938
v -0.882812 -0.023438 -0.210938
v 1.039062 0.000000 -0.367188
v -1.039062 0.000000 -0.367188
v 1.187500 0.093750 -0.445312
v -1.187500 0.093750 -0.445312
v 1.234375 0.250000 -0.445312
v -1.234375 0.250000 -0.445312
v 1.171875 0.359375 -0.437500
v -1.171875 0.359375 -0.437500
v 1.023438 0.343750 -0.359375
v -1.023438 0.343750 -0.359375
v 0.843750 0.289062 -0.210938
v -0.843750 0.289062 -0.210938
v 0.835938 0.171875 -0.273438
v -0.835938 0.171875 -0.273438
v 0.757812 0.093750 -0.273438
v -0.757812 0.093750 -0.273438
v 0.820312 0.085938 -0.273438
v -0.820312 0.085938 -0.273438
v 0.843750 0.015625 -0.273438
v -0.843750 0.015625 -0.273438
v 0.812500 -0.015625 -0.273438
v -0.812500 -0.015625 -0.273438
v 0.726562 0.000000 -0.070312
v -0.726562 0.000000 -0.070312
v 0.718750 -0.023438 -0.171875
v -0.718750 -0.023438 -0.171875
v 0.718750 0.039062 -0.187500
v -0.718750 0.039062 -0.187500
v 0.796875 0.203125 -0.210938
v -0.796875 0.203125 -0.210938
v 0.890625 0.242188 -0.265625
v -0.890625 0.242188 -0.265625
v 0.890625 0.234375 -0.320312
v -0.890625 0.234375 -0.320312
v 0.812500 -0.015625 -0.320312
v -0.812500 -0.015625 -0.320312
v 0.851562 0.015625 -0.320312
v -0.851562 0.015625 -0.320312
v 0.828125 0.078125 -0.320312
v -0.828125 0.078125 -0.320312
v 0.765625 0.093750 -0.320312
v -0.765625 0.093750 -0.320312
v 0.843750 0.171875 -0.320312
v -0.843750 0.171875 -0.320312
v 1.039062 0.328125 -0.414062
v -1.039062 0.328125 -0.414062
v 1.187500 0.343750 -0.484375
v -1.187500 0.343750 -0.484375
v 1.257812 0.242188 -0.492188
v -1.257812 0.242188 -0.492188
v 1.210938 0.085938 -0.484375
v -1.210938 0.085938 -0.484375
v 1.046875 0.000000 -0.421875
v -1.046875 0.000000 -0.421875
v 0.882812 -0.015625 -0.265625
v -0.882812 -0.015625 -0.265625
v 0.953125 0.289062 -0.343750
v -0.953125 0.289062 -0.343750
v 0.890625 0.109375 -0.328125
v -0.890625 0.109375 -0.328125
v 0.937500 0.062500 -0.335938
v -0.937500 0.062500 -0.335938
v 1.000000 0.125000 -0.367188
v -1.000000 0.125000 -0.367188
v 0.960938 0.171875 -0.351562
v -0.960938 0.171875 -0.351562
v 1.015625 0.234375 -0.375000
v -1.015625 0.234375 -0.375000
v 1.054688 0.187500 -0.382812
v -1.054688 0.187500 -0.382812
v 1.109375 0.210938 -0.390625
v -1.109375 0.210938 -0.390625
v 1.085938 0.273438 -0.390625
v -1.085938 0.273438 -0.390625
v 1.023438 0.437500 -0.484375
v -1.023438 0.437500 -0.484375
v 1.250000 0.468750 -0.546875
v -1.250000 0.468750 -0.546875
v 1.367188 0.296875 -0.500000
v -1.367188 0.296875 -0.500000
v 1.312500 0.054688 -0.531250
v -1.312500 0.054688 -0.531250
v 1.039062 -0.085938 -0.492188
v -1.039062 -0.085938 -0.492188
v 0.789062 -0.125000 -0.328125
v -0.789062 -0.125000 -0.328125
v 0.859375 0.382812 -0.382812
v -0.859375 0.382812 -0.382812
vn 0.6650 -0.2008 0.7194
vn -0.6650 -0.2008 0.7194
vn 0.8294 -0.3036 0.4689
vn -0.8294 -0.3036 0.4689
vn 0.4155 -0.7933 0.4449
vn -0.4155 -0.7933 0.4449
vn 0.3600 -0.5089 0.7820
vn -0.3600 -0.5089 0.7820
vn -0.0787 -0.5394 0.8384
vn 0.0787 -0.5394 0.8384
vn -0.2696 -0.8413 0.4685
vn 0.2696 -0.8413 0.4685
vn -0.7707 -0.3352 0.5420
vn 0.7707 -0.3352 0.5420
vn -0.4689 -0.1940 0.8617
vn 0.4689 -0.1940 0.8617
vn -0.4767 0.1907 0.8581
vn 0.4767 0.1907 0.8581
vn -0.7672 0.3264 0.5521
vn 0.7672 0.3264 0.5521
vn -0.2519 0.8173 0.5182
vn 0.2519 0.8173 0.5182
vn -0.0949 0.5696 0.8164
vn 0.0949 0.5696 0.8164
vn 0.3667 0.5370 0.7597
vn -0.3667 0.5370 0.7597
vn 0.4141 0.7672 0.4898
vn -0.4141 0.7672 0.4898
vn 0.8277 0.2952 0.4771
vn -0.8277 0.2952 0.4771
vn 0.6713 0.1971 0.7145
vn -0.6713 0.1971 0.7145
vn 0.8111 0.3244 -0.4867
vn -0.8111 0.3244 -0.4867
vn 0.2052 0.8206 -0.5334
vn -0.2052 0.8206 -0.5334
vn -0.4223 0.7806 -0.4607
vn 0.4223 0.7806 -0.4607
vn -0.8241 0.3225 -0.4658
vn 0.8241 0.3225 -0.4658
vn -0.8137 -0.3487 -0.4650
vn 0.8137 -0.3487 -0.4650
vn -0.4223 -0.7806 -0.4607
vn 0.4223 -0.7806 -0.4607
vn 0.2052 -0.8206 -0.5334
vn -0.2052 -0.8206 -0.5334
vn 0.7995 -0.3510 -0.4875
vn -0.7995 -0.3510 -0.4875
vn 0.4000 -0.0623 0.9144
vn -0.4000 -0.0623 0.9144
vn 0.3069 -0.1754 0.9354
vn -0.3069 -0.1754 0.9354
vn 0.0945 -0.1835 0.9785
vn -0.0945 -0.1835 0.9785
vn -0.0624 -0.0283 0.9977
vn 0.0624 -0.0283 0.9977
vn -0.0624 0.0260 0.9977
vn 0.0624 0.0260 0.9977
vn 0.0996 0.1729 0.9799
vn -0.0996 0.1729 0.9799
vn 0.3036 0.1656 0.9383
vn -0.3036 0.1656 0.9383
vn 0.4002 0.0572 0.9147
vn -0.4002 0.0572 0.9147
vn 0.1231 -0.8616 0.4924
vn -0.1231 -0.8616 0.4924
vn 0.2190 -0.8647 0.4520
vn -0.2190 -0.8647 0.4520
vn 0.5902 -0.4550 0.6668
vn -0.5902 -0.4550 0.6668
vn 0.7689 -0.0506 0.6374
vn -0.7689 -0.0506 0.6374
vn 0.7796 0.0900 0.6197
vn -0.7796 0.0900 0.6197
vn 0.3241 -0.8188 0.4739
vn -0.3241 -0.8188 0.4739
vn 0.3857 -0.6629 0.6417
vn -0.3857 -0.6629 0.6417
vn 0.6895 -0.4193 0.5906
vn -0.6895 -0.4193 0.5906
vn 0.6588 -0.3634 0.6588
vn -0.6588 -0.3634 0.6588
vn 0.5465 0.3707 0.7509
vn -0.5465 0.3707 0.7509
vn 0.5064 0.6464 0.5706
vn -0.5064 0.6464 0.5706
vn 0.6092 0.5167 0.6015
vn -0.6092 0.5167 0.6015
vn -0.0441 0.6610 0.7491
vn 0.0441 0.6610 0.7491
vn -0.7246 0.3187 0.6110
vn 0.7246 0.3187 0.6110
vn -0.5880 0.5554 0.5880
vn 0.5880 0.5554 0.5880
vn 0.5361 -0.3909 0.7482
vn -0.5361 -0.3909 0.7482
vn 0.2207 -0.4690 0.8552
vn -0.2207 -0.4690 0.8552
vn -0.0794 -0.5321 0.8429
vn 0.0794 -0.5321 0.8429
vn -0.0825 -0.6575 0.7490
vn 0.0825 -0.6575 0.7490
vn 0.0457 -0.5667 0.8226
vn -0.0457 -0.5667 0.8226
vn 0.2784 -0.2130 0.9365
vn -0.2784 -0.2130 0.9365
vn 0.3813 -0.1824 0.9063
vn -0.3813 -0.1824 0.9063
vn 0.3357 -0.2878 0.8969
vn -0.3357 -0.2878 0.8969
vn 0.3762 0.0603 0.9246
vn -0.3762 0.0603 0.9246
vn -0.1352 0.2680 0.9539
vn 0.1352 0.2680 0.9539
vn 0.3961 -0.4321 0.8102
vn -0.3961 -0.4321 0.8102
vn 0.1856 -0.2474 0.9510
vn -0.1856 -0.2474 0.9510
vn 0.0099 -0.1948 0.9808
vn -0.0099 -0.1948 0.9808
vn 0.0721 -0.6966 0.7138
vn -0.0721 -0.6966 0.7138
vn 0.1863 -0.5723 0.7986
vn -0.1863 -0.5723 0.7986
vn 0.3157 -0.2708 0.9094
vn -0.3157 -0.2708 0.9094
vn 0.3063 -0.0265 0.9516
vn -0.3063 -0.0265 0.9516
vn 0.3266 -0.1306 0.9361
vn -0.3266 -0.1306 0.9361
vn -0.0137 0.0574 0.9983
vn 0.0137 0.0574 0.9983
vn -0.0026 -0.0656 0.9978
vn 0.0026 -0.0656 0.9978
vn -0.0000 -0.0000 1.0000
vn 0.8174 -0.5744 -0.0442
vn -0.8174 -0.5744 -0.0442
vn 0.9494 0.2297 -0.2144
vn -0.9494 0.2297 -0.2144
vn 0.0825 0.9073 -0.4124
vn -0.0825 0.9073 -0.4124
vn -0.8836 0.3555 0.3047
vn 0.8836 0.3555 0.3047
vn 0.4207 -0.8797 0.2218
vn -0.4207 -0.8797 0.2218
vn 0.2873 -0.5747 0.7663
vn -0.2873 -0.5747 0.7663
vn -0.6542 0.6019 0.4580
vn 0.6542 0.6019 0.4580
vn 0.1052 0.7892 0.6051
vn -0.1052 0.7892 0.6051
vn 0.7582 0.2916 0.5832
vn -0.7582 0.2916 0.5832
vn 0.3889 -0.7130 0.5834
vn -0.3889 -0.7130 0.5834
vn 0.0463 0.2314 0.9718
vn -0.0463 0.2314 0.9718
vn 0.0335 -0.4018 0.9151
vn -0.0335 -0.4018 0.9151
vn -0.4452 -0.1610 0.8809
vn 0.4452 -0.1610 0.8809
vn -0.2182 -0.4364 0.8729
vn 0.2182 -0.4364 0.8729
vn 0.4341 -0.1290 0.8916
vn -0.4341 -0.1290 0.8916
vn 0.3008 0.0501 0.9524
vn -0.3008 0.0501 0.9524
vn 0.8123 0.3010 0.4996
vn -0.8123 0.3010 0.4996
vn 0.8753 0.2574 0.4093
vn -0.8753 0.2574 0.4093
vn 0.9385 0.1601 0.3060
vn -0.9385 0.1601 0.3060
vn 0.2237 -0.6539 0.7227
vn -0.2237 -0.6539 0.7227
vn -0.1536 -0.1997 0.9677
vn 0.1536 -0.1997 0.9677
vn -0.2733 -0.1025 0.9565
vn 0.2733 -0.1025 0.9565
vn -0.0976 0.1952 0.9759
vn 0.0976 0.1952 0.9759
vn -0.1582 0.9494 0.2713
vn 0.1582 0.9494 0.2713
vn -0.6934 0.7082 0.1328
vn 0.6934 0.7082 0.1328
vn -1.0000 -0.0000 -0.0000
vn 1.0000 -0.0000 -0.0000
vn 0.3051 -0.9450 0.1181
vn -0.3051 -0.9450 0.1181
vn 0.0298 -0.2981 0.9541
vn -0.0298 -0.2981 0.9541
vn 0.1353 -0.3479 0.9277
vn -0.1353 -0.3479 0.9277
vn -0.5085 -0.2755 0.8158
vn 0.5085 -0.2755 0.8158
vn -0.3843 -0.0419 0.9223
vn 0.3843 -0.0419 0.9223
vn -0.2083 0.0374 0.9774
vn 0.2083 0.0374 0.9774
vn -0.5721 -0.4767 0.6674
vn 0.5721 -0.4767 0.6674
vn -0.1369 -0.7531 0.6435
vn 0.1369 -0.7531 0.6435
vn 0.4088 -0.6071 0.6814
vn -0.4088 -0.6071 0.6814
vn 0.5740 -0.4130 0.7070
vn -0.5740 -0.4130 0.7070
vn 0.5665 -0.0968 0.8183
vn -0.5665 -0.0968 0.8183
vn 0.5703 0.1180 0.8129
vn -0.5703 0.1180 0.8129
vn 0.4823 0.5621 0.6719
vn -0.4823 0.5621 0.6719
vn 0.2604 0.6114 0.7473
vn -0.2604 0.6114 0.7473
vn 0.1640 0.3607 0.9182
vn -0.1640 0.3607 0.9182
vn -0.0178 0.2495 0.9682
vn 0.0178 0.2495 0.9682
vn 0.3273 -0.4166 0.8481
vn -0.3273 -0.4166 0.8481
vn 0.2811 -0.2610 0.9235
vn -0.2811 -0.2610 0.9235
vn -0.2542 -0.6514 0.7149
vn 0.2542 -0.6514 0.7149
vn -0.0260 -0.8455 0.5333
vn 0.0260 -0.8455 0.5333
vn -0.3518 -0.2606 0.8991
vn 0.3518 -0.2606 0.8991
vn -0.3523 -0.0110 0.9358
vn 0.3523 -0.0110 0.9358
vn -0.1317 0.4608 0.8777
vn 0.1317 0.4608 0.8777
vn -0.0342 0.6159 0.7870
vn 0.0342 0.6159 0.7870
vn 0.3603 0.5836 0.7277
vn -0.3603 0.5836 0.7277
vn 0.4988 0.5300 0.6858
vn -0.4988 0.5300 0.6858
vn 0.6667 -0.3333 0.6667
vn -0.6667 -0.3333 0.6667
vn 0.8165 -0.0731 0.5727
vn -0.8165 -0.0731 0.5727
vn 0.7840 0.1161 0.6098
vn -0.7840 0.1161 0.6098
vn -0.5306 0.8111 -0.2461
vn 0.5306 0.8111 -0.2461
vn -0.8511 0.3695 -0.3730
vn 0.8511 0.3695 -0.3730
vn -0.2446 0.8675 -0.4331
vn 0.2446 0.8675 -0.4331
vn 0.5924 0.7465 -0.3030
vn -0.5924 0.7465 -0.3030
vn 0.3685 0.8758 -0.3118
vn -0.3685 0.8758 -0.3118
vn 0.2821 0.9151 -0.2880
vn -0.2821 0.9151 -0.2880
vn 0.8561 0.1340 -0.4991
vn -0.8561 0.1340 -0.4991
vn 0.5342 -0.7233 -0.4376
vn -0.5342 -0.7233 -0.4376
vn 0.3849 -0.8131 -0.4368
vn -0.3849 -0.8131 -0.4368
vn 0.2335 -0.5806 -0.7800
vn -0.2335 -0.5806 -0.7800
vn 0.2449 -0.0583 -0.9678
vn -0.2449 -0.0583 -0.9678
vn 0.1163 -0.4535 -0.8837
vn -0.1163 -0.4535 -0.8837
vn 0.1152 -0.9836 -0.1388
vn -0.1152 -0.9836 -0.1388
vn 0.1184 -0.9669 -0.2260
vn -0.1184 -0.9669 -0.2260
vn 0.9597 -0.0085 -0.2808
vn -0.9597 -0.0085 -0.2808
vn 0.9319 0.1629 -0.3242
vn -0.9319 0.1629 -0.3242
vn 0.1626 0.0207 -0.9865
vn -0.1626 0.0207 -0.9865
vn -0.0188 -0.2177 -0.9758
vn 0.0188 -0.2177 -0.9758
vn 0.7538 -0.2926 -0.5884
vn -0.7538 -0.2926 -0.5884
vn 0.9196 0.1379 -0.3678
vn -0.9196 0.1379 -0.3678
vn 0.9297 0.3127 -0.1944
vn -0.9297 0.3127 -0.1944
vn 0.9120 0.3376 -0.2329
vn -0.9120 0.3376 -0.2329
vn 0.9407 0.3338 -0.0607
vn -0.9407 0.3338 -0.0607
vn 0.1761 -0.8805 -0.4402
vn -0.1761 -0.8805 -0.4402
vn 0.3708 -0.4733 -0.7991
vn -0.3708 -0.4733 -0.7991
vn 0.3107 -0.8284 -0.4660
vn -0.3107 -0.8284 -0.4660
vn 0.2793 -0.9515 -0.1287
vn -0.2793 -0.9515 -0.1287
vn 0.3139 -0.9321 -0.1807
vn -0.3139 -0.9321 -0.1807
vn 0.9762 -0.2083 -0.0609
vn -0.9762 -0.2083 -0.0609
vn 0.8267 -0.5066 0.2447
vn -0.8267 -0.5066 0.2447
vn 0.3449 -0.1158 -0.9315
vn -0.3449 -0.1158 -0.9315
vn 0.1203 0.9644 0.2355
vn -0.1203 0.9644 0.2355
vn 0.1275 0.9744 -0.1851
vn -0.1275 0.9744 -0.1851
vn 0.3492 0.5947 -0.7241
vn -0.3492 0.5947 -0.7241
vn 0.4153 0.8981 -0.1449
vn -0.4153 0.8981 -0.1449
vn 0.1845 0.7036 0.6863
vn -0.1845 0.7036 0.6863
vn 0.6056 0.7794 0.1608
vn -0.6056 0.7794 0.1608
vn 0.7033 0.6806 -0.2053
vn -0.7033 0.6806 -0.2053
vn 0.6679 0.2007 -0.7166
vn -0.6679 0.2007 -0.7166
vn 0.4948 0.4342 -0.7528
vn -0.4948 0.4342 -0.7528
vn 0.6423 0.7459 -0.1761
vn -0.6423 0.7459 -0.1761
vn 0.7182 0.6788 0.1530
vn -0.7182 0.6788 0.1530
vn 0.7388 0.3972 0.5444
vn -0.7388 0.3972 0.5444
vn 0.3428 0.9261 -0.1579
vn -0.3428 0.9261 -0.1579
vn 0.2270 0.5740 0.7867
vn -0.2270 0.5740 0.7867
vn -0.1722 0.1046 -0.9795
vn 0.1722 0.1046 -0.9795
vn 0.0425 0.9150 0.4013
vn -0.0425 0.9150 0.4013
vn -0.1616 0.1847 0.9694
vn 0.1616 0.1847 0.9694
vn 0.9791 0.1973 0.0483
vn -0.9791 0.1973 0.0483
vn 0.9470 0.0918 0.3079
vn -0.9470 0.0918 0.3079
vn 0.9794 0.1905 -0.0661
vn -0.9794 0.1905 -0.0661
vn 0.9938 0.0312 -0.1070
vn -0.9938 0.0312 -0.1070
vn 0.7116 -0.7008 0.0501
vn -0.7116 -0.7008 0.0501
vn 0.3722 -0.9243 0.0847
vn -0.3722 -0.9243 0.0847
vn 0.4465 -0.8644 0.2310
vn -0.4465 -0.8644 0.2310
vn 0.6066 -0.7578 0.2405
vn -0.6066 -0.7578 0.2405
vn 0.7325 -0.6368 0.2407
vn -0.7325 -0.6368 0.2407
vn 0.2637 -0.4499 0.8533
vn -0.2637 -0.4499 0.8533
vn 0.5568 -0.3181 -0.7673
vn -0.5568 -0.3181 -0.7673
vn 0.5004 -0.2807 -0.8190
vn -0.5004 -0.2807 -0.8190
vn 0.3190 -0.8494 -0.4205
vn -0.3190 -0.8494 -0.4205
vn 0.7198 -0.6356 -0.2793
vn -0.7198 -0.6356 -0.2793
vn 0.4972 -0.4408 -0.7473
vn -0.4972 -0.4408 -0.7473
vn 0.3506 0.3807 0.8557
vn -0.3506 0.3807 0.8557
vn 0.4566 0.1715 0.8730
vn -0.4566 0.1715 0.8730
vn 0.2583 0.1055 0.9603
vn -0.2583 0.1055 0.9603
vn 0.2455 -0.0802 0.9661
vn -0.2455 -0.0802 0.9661
vn 0.4643 -0.0599 0.8837
vn -0.4643 -0.0599 0.8837
vn 0.6225 -0.3045 0.7210
vn -0.6225 -0.3045 0.7210
vn 0.4500 0.6590 0.6027
vn -0.4500 0.6590 0.6027
vn -0.2667 0.8309 0.4884
vn 0.2667 0.8309 0.4884
vn -0.8284 0.2291 0.5111
vn 0.8284 0.2291 0.5111
vn -0.5251 -0.3566 0.7727
vn 0.5251 -0.3566 0.7727
vn 0.4546 -0.5665 0.6873
vn -0.4546 -0.5665 0.6873
vn 0.6996 -0.4497 0.5552
vn -0.6996 -0.4497 0.5552
vn 0.7220 -0.6827 -0.1126
vn -0.7220 -0.6827 -0.1126
vn -0.1919 0.2860 0.9388
vn 0.1919 0.2860 0.9388
vn 0.9048 -0.3734 -0.2047
vn -0.9048 -0.3734 -0.2047
vn 0.1034 0.1551 0.9825
vn -0.1034 0.1551 0.9825
vn 0.0841 0.9318 0.3530
vn -0.0841 0.9318 0.3530
vn 0.6446 -0.0883 0.7594
vn -0.6446 -0.0883 0.7594
vn 0.4309 0.4740 0.7678
vn -0.4309 0.4740 0.7678
vn 0.8032 -0.4847 0.3462
vn -0.8032 -0.4847 0.3462
vn 0.5811 -0.4128 0.7014
vn -0.5811 -0.4128 0.7014
vn 0.5910 -0.4305 0.6822
vn -0.5910 -0.4305 0.6822
vn 0.9818 -0.1804 -0.0591
vn -0.9818 -0.1804 -0.0591
vn 0.9105 -0.3965 -0.1175
vn -0.9105 -0.3965 -0.1175
vn 0.9972 -0.0181 -0.0725
vn -0.9972 -0.0181 -0.0725
vn 0.7313 -0.6543 0.1925
vn -0.7313 -0.6543 0.1925
vn 0.7867 -0.6079 0.1073
vn -0.7867 -0.6079 0.1073
vn 0.7022 -0.7022 0.1170
vn -0.7022 -0.7022 0.1170
vn 0.1840 0.9816 -0.0511
vn -0.1840 0.9816 -0.0511
vn 0.9352 0.3301 0.1284
vn -0.9352 0.3301 0.1284
vn 0.6633 -0.7463 0.0553
vn -0.6633 -0.7463 0.0553
vn -0.0085 0.9970 0.0767
vn 0.0085 0.9970 0.0767
vn 0.6237 -0.7061 0.3354
vn -0.6237 -0.7061 0.3354
vn 0.2733 -0.8925 0.3587
vn -0.2733 -0.8925 0.3587
vn -0.8328 -0.5080 -0.2200
vn 0.8328 -0.5080 -0.2200
vn -0.8339 0.2377 -0.4981
vn 0.8339 0.2377 -0.4981
vn -0.5655 0.7847 -0.2539
vn 0.5655 0.7847 -0.2539
vn -0.0560 0.9962 0.0672
vn 0.0560 0.9962 0.0672
vn 0.1445 0.0222 0.9893
vn -0.1445 0.0222 0.9893
vn 0.3275 0.0645 0.9427
vn -0.3275 0.0645 0.9427
vn 0.3127 0.0232 0.9496
vn -0.3127 0.0232 0.9496
vn 0.1710 0.0274 0.9849
vn -0.1710 0.0274 0.9849
vn 0.3487 0.2849 0.8929
vn -0.3487 0.2849 0.8929
vn 0.4006 -0.0343 0.9156
vn -0.4006 -0.0343 0.9156
vn 0.2572 -0.0603 0.9645
vn -0.2572 -0.0603 0.9645
vn 0.0637 -0.0106 0.9979
vn -0.0637 -0.0106 0.9979
vn -0.3637 0.7039 0.6101
vn 0.3637 0.7039 0.6101
vn 0.6299 0.0355 0.7759
vn -0.6299 0.0355 0.7759
vn 0.4472 -0.2002 0.8717
vn -0.4472 -0.2002 0.8717
vn 0.5072 -0.2141 0.8348
vn -0.5072 -0.2141 0.8348
vn 0.5258 0.2619 0.8093
vn -0.5258 0.2619 0.8093
vn 0.2980 0.5802 0.7580
vn -0.2980 0.5802 0.7580
vn 0.0930 -0.9924 -0.0805
vn -0.0930 -0.9924 -0.0805
vn 0.5006 -0.8657 0.0080
vn -0.5006 -0.8657 0.0080
vn 0.9285 -0.2497 0.2748
vn -0.9285 -0.2497 0.2748
vn 0.8393 0.5424 -0.0378
vn -0.8393 0.5424 -0.0378
vn -0.2355 0.9367 -0.2589
vn 0.2355 0.9367 -0.2589
vn -0.4499 0.8838 -0.1285
vn 0.4499 0.8838 -0.1285
vn -0.5384 -0.0098 -0.8427
vn 0.5384 -0.0098 -0.8427
vn -0.1910 -0.0241 -0.9813
vn 0.1910 -0.0241 -0.9813
vn 0.4046 0.0266 -0.9141
vn -0.4046 0.0266 -0.9141
vn -0.7819 0.6231 0.0197
vn 0.7819 0.6231 0.0197
vn 0.5428 -0.2063 -0.8142
vn -0.5428 -0.2063 -0.8142
vn -0.2474 -0.9231 -0.2945
vn 0.2474 -0.9231 -0.2945
vt 0.671429 0.566125
vt 0.660000 0.537553
vt 0.682857 0.511839
vt 0.705714 0.566125
vt 0.317143 0.511839
vt 0.340000 0.537553
vt 0.328571 0.566125
vt 0.294286 0.566125
vt 0.369916 0.566125
vt 0.364202 0.511839
vt 0.404202 0.497553
vt 0.409916 0.566125
vt 0.682857 0.364202
vt 0.628571 0.352773
vt 0.628571 0.389916
vt 0.700000 0.404202
vt 0.371429 0.389916
vt 0.371429 0.352773
vt 0.317143 0.364202
vt 0.300000 0.404202
vt 0.628571 0.526125
vt 0.628571 0.488982
vt 0.371429 0.488982
vt 0.371429 0.526125
vt 0.600000 0.537553
vt 0.574286 0.511839
vt 0.425714 0.511839
vt 0.400000 0.537553
vt 0.574286 0.344202
vt 0.557143 0.378488
vt 0.442857 0.378488
vt 0.425714 0.344202
vt 0.344202 0.511839
vt 0.344202 0.566125
vt 0.375630 0.566125
vt 0.378488 0.497553
vt 0.588571 0.566125
vt 0.551429 0.566125
vt 0.448571 0.566125
vt 0.411429 0.566125
vt 0.600000 0.597553
vt 0.574286 0.620410
vt 0.425714 0.620410
vt 0.400000 0.597553
vt 0.344202 0.620410
vt 0.378488 0.637553
vt 0.628571 0.608982
vt 0.628571 0.643268
vt 0.371429 0.643268
vt 0.371429 0.608982
vt 0.660000 0.597553
vt 0.682857 0.620410
vt 0.317143 0.620410
vt 0.340000 0.597553
vt 0.364202 0.620410
vt 0.404202 0.637553
vt 0.338488 0.566125
vt 0.335630 0.597553
vt 0.329916 0.600410
vt 0.332773 0.566125
vt 0.660000 0.335630
vt 0.628571 0.329916
vt 0.628571 0.321345
vt 0.662857 0.329916
vt 0.371429 0.321345
vt 0.371429 0.329916
vt 0.340000 0.335630
vt 0.337143 0.329916
vt 0.600000 0.324202
vt 0.597143 0.315630
vt 0.402857 0.315630
vt 0.400000 0.324202
vt 0.324202 0.597553
vt 0.324202 0.566125
vt 0.315630 0.566125
vt 0.315630 0.600410
vt 0.324202 0.537553
vt 0.315630 0.534696
vt 0.335630 0.537553
vt 0.329916 0.534696
vt 0.628571 0.566125
vt 0.662857 0.534696
vt 0.674286 0.566125
vt 0.325714 0.566125
vt 0.337143 0.534696
vt 0.371429 0.566125
vt 0.628571 0.520410
vt 0.371429 0.520410
vt 0.597143 0.534696
vt 0.402857 0.534696
vt 0.582857 0.566125
vt 0.417143 0.566125
vt 0.597143 0.600410
vt 0.402857 0.600410
vt 0.628571 0.614696
vt 0.371429 0.614696
vt 0.662857 0.600410
vt 0.337143 0.600410
vt 0.565714 0.412773
vt 0.560000 0.384202
vt 0.500000 0.381345
vt 0.500000 0.404202
vt 0.440000 0.384202
vt 0.434286 0.412773
vt 0.620000 0.424202
vt 0.585714 0.384202
vt 0.414286 0.384202
vt 0.380000 0.424202
vt 0.634286 0.151839
vt 0.597143 0.177553
vt 0.585714 0.143268
vt 0.620000 0.131839
vt 0.414286 0.143268
vt 0.402857 0.177553
vt 0.365714 0.151839
vt 0.380000 0.131839
vt 0.407059 0.223268
vt 0.364202 0.220410
vt 0.372773 0.177553
vt 0.421345 0.151839
vt 0.407059 0.317553
vt 0.355630 0.314696
vt 0.574286 0.409916
vt 0.660000 0.421345
vt 0.645714 0.369916
vt 0.545714 0.318488
vt 0.354286 0.369916
vt 0.340000 0.421345
vt 0.425714 0.409916
vt 0.454286 0.318488
vt 0.731429 0.418488
vt 0.725714 0.387059
vt 0.274286 0.387059
vt 0.268571 0.418488
vt 0.418488 0.463268
vt 0.452773 0.531839
vt 0.395630 0.551839
vt 0.387059 0.497553
vt 0.802857 0.531839
vt 0.814286 0.634696
vt 0.771429 0.614696
vt 0.765714 0.551839
vt 0.228571 0.614696
vt 0.185714 0.634696
vt 0.197143 0.531839
vt 0.234286 0.551839
vt 0.760000 0.654696
vt 0.751429 0.628982
vt 0.248571 0.628982
vt 0.240000 0.654696
vt 0.760000 0.387059
vt 0.680000 0.364202
vt 0.660000 0.324202
vt 0.751429 0.349916
vt 0.340000 0.324202
vt 0.320000 0.364202
vt 0.240000 0.387059
vt 0.248571 0.349916
vt 0.364202 0.697553
vt 0.347059 0.754696
vt 0.309916 0.711839
vt 0.324202 0.677553
vt 0.617143 0.754696
vt 0.557143 0.740410
vt 0.574286 0.703268
vt 0.614286 0.711839
vt 0.425714 0.703268
vt 0.442857 0.740410
vt 0.382857 0.754696
vt 0.385714 0.711839
vt 0.338488 0.740410
vt 0.341345 0.657553
vt 0.307059 0.634696
vt 0.304202 0.703268
vt 0.522857 0.657553
vt 0.500000 0.634696
vt 0.500000 0.606125
vt 0.537143 0.634696
vt 0.477143 0.657553
vt 0.462857 0.634696
vt 0.560000 0.628982
vt 0.591429 0.648982
vt 0.408571 0.648982
vt 0.440000 0.628982
vt 0.620000 0.651839
vt 0.380000 0.651839
vt 0.657143 0.637553
vt 0.660000 0.677553
vt 0.340000 0.677553
vt 0.342857 0.637553
vt 0.720000 0.614696
vt 0.280000 0.614696
vt 0.734286 0.586125
vt 0.265714 0.586125
vt 0.728571 0.546125
vt 0.271429 0.546125
vt 0.680000 0.500410
vt 0.725714 0.497553
vt 0.274286 0.497553
vt 0.320000 0.500410
vt 0.637143 0.483268
vt 0.645714 0.460410
vt 0.354286 0.460410
vt 0.362857 0.483268
vt 0.545714 0.440410
vt 0.454286 0.440410
vt 0.560000 0.528982
vt 0.500000 0.494696
vt 0.440000 0.528982
vt 0.545714 0.588982
vt 0.454286 0.588982
vt 0.500000 0.554696
vt 0.548571 0.554696
vt 0.451429 0.554696
vt 0.522857 0.154696
vt 0.500000 0.151839
vt 0.500000 0.131839
vt 0.560000 0.137553
vt 0.477143 0.154696
vt 0.440000 0.137553
vt 0.542857 0.171839
vt 0.457143 0.171839
vt 0.540000 0.214696
vt 0.460000 0.214696
vt 0.577143 0.314696
vt 0.528571 0.314696
vt 0.542857 0.226125
vt 0.591429 0.220410
vt 0.457143 0.226125
vt 0.471429 0.314696
vt 0.422857 0.314696
vt 0.408571 0.220410
vt 0.531429 0.371839
vt 0.500000 0.357553
vt 0.500000 0.314696
vt 0.468571 0.371839
vt 0.500000 0.228982
vt 0.500000 0.197553
vt 0.341345 0.394696
vt 0.324202 0.394696
vt 0.329916 0.377553
vt 0.344202 0.371839
vt 0.344202 0.423268
vt 0.329916 0.428982
vt 0.500000 0.344202
vt 0.514286 0.329916
vt 0.540000 0.329916
vt 0.537143 0.344202
vt 0.460000 0.329916
vt 0.485714 0.329916
vt 0.462857 0.344202
vt 0.341345 0.406125
vt 0.324202 0.408982
vt 0.329916 0.431839
vt 0.344202 0.426125
vt 0.531429 0.344202
vt 0.534286 0.329916
vt 0.500000 0.329916
vt 0.465714 0.329916
vt 0.468571 0.344202
vt 0.500000 0.360410
vt 0.534286 0.377553
vt 0.528571 0.386125
vt 0.500000 0.371839
vt 0.471429 0.386125
vt 0.465714 0.377553
vt 0.312773 0.403268
vt 0.318488 0.423268
vt 0.517143 0.318488
vt 0.534286 0.318488
vt 0.465714 0.318488
vt 0.482857 0.318488
vt 0.318488 0.420410
vt 0.312773 0.394696
vt 0.548571 0.324202
vt 0.540000 0.312773
vt 0.528571 0.321345
vt 0.471429 0.321345
vt 0.460000 0.312773
vt 0.451429 0.324202
vt 0.500000 0.403268
vt 0.540000 0.394696
vt 0.534286 0.420410
vt 0.517143 0.423268
vt 0.465714 0.420410
vt 0.460000 0.394696
vt 0.482857 0.423268
vt 0.500000 0.426125
vt 0.537143 0.423268
vt 0.462857 0.423268
vt 0.545714 0.394696
vt 0.560000 0.388982
vt 0.440000 0.388982
vt 0.454286 0.394696
vt 0.565714 0.363268
vt 0.434286 0.363268
vt 0.412773 0.363268
vt 0.355630 0.363268
vt 0.412773 0.386125
vt 0.355630 0.388982
vt 0.409916 0.408982
vt 0.318488 0.440410
vt 0.500000 0.194696
vt 0.534286 0.206125
vt 0.465714 0.206125
vt 0.534286 0.177553
vt 0.465714 0.177553
vt 0.517143 0.160410
vt 0.482857 0.160410
vt 0.500000 0.157553
vt 0.500000 0.364202
vt 0.517143 0.364202
vt 0.517143 0.384202
vt 0.500000 0.384202
vt 0.482857 0.384202
vt 0.482857 0.364202
vt 0.534286 0.355630
vt 0.534286 0.381345
vt 0.465714 0.381345
vt 0.465714 0.355630
vt 0.355630 0.177553
vt 0.349916 0.206125
vt 0.372773 0.203268
vt 0.381345 0.180410
vt 0.534286 0.349916
vt 0.500000 0.352773
vt 0.500000 0.375630
vt 0.534286 0.372773
vt 0.465714 0.349916
vt 0.465714 0.372773
vt 0.500000 0.191839
vt 0.500000 0.163268
vt 0.517143 0.166125
vt 0.534286 0.203268
vt 0.482857 0.166125
vt 0.465714 0.203268
vt 0.534286 0.180410
vt 0.465714 0.180410
vt 0.568571 0.534696
vt 0.562857 0.557553
vt 0.431429 0.534696
vt 0.437143 0.557553
vt 0.565714 0.586125
vt 0.434286 0.586125
vt 0.577143 0.614696
vt 0.422857 0.614696
vt 0.582857 0.517553
vt 0.417143 0.517553
vt 0.637143 0.358488
vt 0.637143 0.344202
vt 0.582857 0.329916
vt 0.362857 0.344202
vt 0.362857 0.358488
vt 0.417143 0.329916
vt 0.674286 0.514696
vt 0.637143 0.500410
vt 0.325714 0.514696
vt 0.362857 0.500410
vt 0.711429 0.548982
vt 0.288571 0.548982
vt 0.714286 0.583268
vt 0.285714 0.583268
vt 0.705714 0.606125
vt 0.294286 0.606125
vt 0.654286 0.623268
vt 0.345714 0.623268
vt 0.622857 0.634696
vt 0.377143 0.634696
vt 0.600000 0.631839
vt 0.400000 0.631839
vt 0.585714 0.608982
vt 0.602857 0.623268
vt 0.414286 0.608982
vt 0.397143 0.623268
vt 0.622857 0.626125
vt 0.377143 0.626125
vt 0.651429 0.620410
vt 0.348571 0.620410
vt 0.705714 0.361345
vt 0.654286 0.332773
vt 0.651429 0.341345
vt 0.694286 0.367059
vt 0.348571 0.341345
vt 0.345714 0.332773
vt 0.294286 0.361345
vt 0.305714 0.367059
vt 0.694286 0.600410
vt 0.702857 0.580410
vt 0.305714 0.600410
vt 0.297143 0.580410
vt 0.700000 0.554696
vt 0.300000 0.554696
vt 0.668571 0.520410
vt 0.331429 0.520410
vt 0.637143 0.508982
vt 0.362857 0.508982
vt 0.588571 0.523268
vt 0.411429 0.523268
vt 0.574286 0.540410
vt 0.425714 0.540410
vt 0.571429 0.586125
vt 0.428571 0.586125
vt 0.329916 0.586125
vt 0.329916 0.557553
vt 0.341345 0.560410
vt 0.338488 0.586125
vt 0.332773 0.534696
vt 0.341345 0.540410
vt 0.522857 0.341345
vt 0.540000 0.392773
vt 0.500000 0.395630
vt 0.460000 0.392773
vt 0.477143 0.341345
vt 0.389916 0.720410
vt 0.392773 0.646125
vt 0.557143 0.338488
vt 0.617143 0.347059
vt 0.622857 0.398488
vt 0.571429 0.389916
vt 0.377143 0.398488
vt 0.382857 0.347059
vt 0.442857 0.338488
vt 0.428571 0.389916
vt 0.677143 0.412773
vt 0.322857 0.412773
vt 0.748571 0.435630
vt 0.251429 0.435630
vt 0.814286 0.398488
vt 0.791429 0.447059
vt 0.208571 0.447059
vt 0.185714 0.398488
vt 0.398488 0.634696
vt 0.478488 0.537553
vt 0.447059 0.626125
vt 0.802857 0.452773
vt 0.720000 0.464202
vt 0.782857 0.478488
vt 0.280000 0.464202
vt 0.197143 0.452773
vt 0.217143 0.478488
vt 0.660000 0.444202
vt 0.340000 0.444202
vt 0.500000 0.268982
vt 0.500000 0.300410
vt 0.565714 0.326125
vt 0.545714 0.280410
vt 0.434286 0.326125
vt 0.454286 0.280410
vt 0.500000 0.183268
vt 0.551429 0.200410
vt 0.448571 0.200410
vt 0.500000 0.120410
vt 0.560000 0.131839
vt 0.440000 0.131839
vt 0.500000 0.447059
vt 0.560000 0.455630
vt 0.440000 0.455630
vt 0.620000 0.469916
vt 0.380000 0.469916
vt 0.424202 0.131839
vt 0.469916 0.143268
vt 0.475630 0.217553
vt 0.472773 0.294696
vt 0.605714 0.217553
vt 0.591429 0.294696
vt 0.394286 0.217553
vt 0.408571 0.294696
vt 0.620000 0.143268
vt 0.380000 0.143268
vt 0.467059 0.348982
vt 0.484202 0.280410
vt 0.521345 0.326125
vt 0.458488 0.374696
vt 0.444202 0.394696
vt 0.432773 0.414696
vt 0.574286 0.432773
vt 0.425714 0.432773
vt 0.500000 0.503268
vt 0.622857 0.497553
vt 0.625714 0.423268
vt 0.500000 0.406125
vt 0.374286 0.423268
vt 0.377143 0.497553
vt 0.500000 0.861345
vt 0.625714 0.812773
vt 0.608571 0.712773
vt 0.500000 0.744202
vt 0.391429 0.712773
vt 0.374286 0.812773
vt 0.577143 0.555630
vt 0.500000 0.547059
vt 0.422857 0.555630
vt 0.565714 0.521345
vt 0.500000 0.512773
vt 0.434286 0.521345
vt 0.555630 0.334696
vt 0.464202 0.477553
vt 0.589916 0.460410
vt 0.595630 0.563268
vt 0.500000 0.683268
vt 0.668571 0.637553
vt 0.331429 0.637553
vt 0.500000 0.509916
vt 0.665714 0.529916
vt 0.665714 0.641345
vt 0.500000 0.644202
vt 0.334286 0.641345
vt 0.334286 0.529916
vt 0.665714 0.755630
vt 0.500000 0.815630
vt 0.334286 0.755630
vt 0.500000 0.806125
vt 0.665714 0.794696
vt 0.334286 0.794696
vt 0.765714 0.492773
vt 0.731429 0.512773
vt 0.234286 0.492773
vt 0.268571 0.512773
vt 0.791429 0.569916
vt 0.734286 0.595630
vt 0.208571 0.569916
vt 0.265714 0.595630
vt 0.791429 0.658488
vt 0.734286 0.687059
vt 0.208571 0.658488
vt 0.265714 0.687059
vt 0.687059 0.751839
vt 0.658488 0.703268
vt 0.747059 0.674696
vt 0.778488 0.726125
vt 0.782857 0.574696
vt 0.725714 0.597553
vt 0.734286 0.726125
vt 0.791429 0.674696
vt 0.265714 0.726125
vt 0.274286 0.597553
vt 0.217143 0.574696
vt 0.208571 0.674696
vt 0.734286 0.778488
vt 0.265714 0.778488
vt 0.641345 0.817553
vt 0.529916 0.788982
vt 0.595630 0.734696
vt 0.458488 0.668982
vt 0.512773 0.643268
vt 0.668571 0.458488
vt 0.331429 0.458488
vt 0.500000 0.686125
vt 0.668571 0.668982
vt 0.665714 0.788982
vt 0.334286 0.788982
vt 0.331429 0.668982
vt 0.540000 0.646125
vt 0.571429 0.720410
vt 0.622857 0.728982
vt 0.677143 0.680411
vt 0.377143 0.728982
vt 0.428571 0.720410
vt 0.460000 0.646125
vt 0.322857 0.680411
vt 0.500000 0.407059
vt 0.500000 0.626125
vt 0.492773 0.626125
vt 0.632773 0.594696
vt 0.569916 0.683268
vt 0.689916 0.597553
vt 0.775630 0.574696
vt 0.712773 0.363268
vt 0.692773 0.406125
vt 0.561345 0.414696
vt 0.768571 0.589916
vt 0.648571 0.561345
vt 0.657143 0.692773
vt 0.717143 0.675630
vt 0.342857 0.692773
vt 0.351429 0.561345
vt 0.231429 0.589916
vt 0.282857 0.675630
vt 0.577143 0.444202
vt 0.580000 0.458488
vt 0.420000 0.458488
vt 0.422857 0.444202
vt 0.660000 0.443268
vt 0.574286 0.414696
vt 0.577143 0.394696
vt 0.422857 0.394696
vt 0.425714 0.414696
vt 0.340000 0.443268
vt 0.734286 0.474696
vt 0.677143 0.486125
vt 0.322857 0.486125
vt 0.265714 0.474696
vt 0.677143 0.815630
vt 0.734286 0.772773
vt 0.322857 0.815630
vt 0.265714 0.772773
vt 0.812773 0.423268
vt 0.815630 0.486125
vt 0.874286 0.651839
vt 0.825714 0.626125
vt 0.837143 0.608982
vt 0.871429 0.628982
vt 0.162857 0.608982
vt 0.174286 0.626125
vt 0.125714 0.651839
vt 0.128571 0.628982
vt 0.934286 0.637553
vt 0.951429 0.663268
vt 0.065714 0.637553
vt 0.048571 0.663268
vt 0.962857 0.583268
vt 0.994286 0.594696
vt 0.037143 0.583268
vt 0.005714 0.594696
vt 0.942857 0.506125
vt 0.968571 0.497553
vt 0.057143 0.506125
vt 0.031429 0.497553
vt 0.877143 0.463268
vt 0.880000 0.440410
vt 0.122857 0.463268
vt 0.120000 0.440410
vt 0.802857 0.451839
vt 0.782857 0.426125
vt 0.197143 0.451839
vt 0.217143 0.426125
vt 0.877143 0.727059
vt 0.880000 0.749916
vt 0.822857 0.692773
vt 0.802857 0.664202
vt 0.177143 0.692773
vt 0.120000 0.749916
vt 0.122857 0.727059
vt 0.197143 0.664202
vt 0.942857 0.764202
vt 0.934286 0.778488
vt 0.065714 0.778488
vt 0.057143 0.764202
vt 0.764202 0.583268
vt 0.778488 0.568982
vt 0.778488 0.511839
vt 0.764202 0.506125
vt 0.928571 0.608982
vt 0.951429 0.568982
vt 0.048571 0.568982
vt 0.071429 0.608982
vt 0.874286 0.603268
vt 0.125714 0.603268
vt 0.721345 0.628982
vt 0.695630 0.608982
vt 0.721345 0.588982
vt 0.747059 0.603268
vt 0.675630 0.431839
vt 0.678488 0.468982
vt 0.641345 0.477553
vt 0.717143 0.431839
vt 0.762857 0.468982
vt 0.282857 0.431839
vt 0.237143 0.468982
vt 0.800000 0.597553
vt 0.808571 0.583268
vt 0.191429 0.583268
vt 0.200000 0.597553
vt 0.797143 0.715630
vt 0.762857 0.678488
vt 0.202857 0.715630
vt 0.237143 0.678488
vt 0.808571 0.483268
vt 0.762857 0.491839
vt 0.797143 0.471839
vt 0.237143 0.491839
vt 0.191429 0.483268
vt 0.202857 0.471839
vt 0.777143 0.511839
vt 0.800000 0.508982
vt 0.222857 0.511839
vt 0.200000 0.508982
vt 0.715630 0.540410
vt 0.692773 0.551839
vt 0.684202 0.491839
vt 0.715630 0.511839
vt 0.791429 0.551839
vt 0.805714 0.540410
vt 0.825714 0.566125
vt 0.194286 0.540410
vt 0.208571 0.551839
vt 0.174286 0.566125
vt 0.845714 0.588982
vt 0.154286 0.588982
vt 0.692773 0.583268
vt 0.712773 0.566125
vt 0.732773 0.563268
vt 0.741345 0.583268
vt 0.732773 0.540410
vt 0.805714 0.715630
vt 0.777143 0.715630
vt 0.780000 0.732773
vt 0.808571 0.732773
vt 0.220000 0.732773
vt 0.222857 0.715630
vt 0.194286 0.715630
vt 0.191429 0.732773
vt 0.800000 0.715630
vt 0.802857 0.732773
vt 0.197143 0.732773
vt 0.200000 0.715630
vt 0.715630 0.508982
vt 0.715630 0.483268
vt 0.732773 0.483268
vt 0.732773 0.506125
vt 0.808571 0.715630
vt 0.797143 0.732773
vt 0.811429 0.732773
vt 0.202857 0.732773
vt 0.191429 0.715630
vt 0.188571 0.732773
vt 0.822857 0.712773
vt 0.177143 0.712773
vt 0.874286 0.747059
vt 0.845714 0.721345
vt 0.848571 0.741345
vt 0.880000 0.767059
vt 0.151429 0.741345
vt 0.154286 0.721345
vt 0.125714 0.747059
vt 0.120000 0.767059
vt 0.928571 0.775630
vt 0.934286 0.792773
vt 0.071429 0.775630
vt 0.065714 0.792773
vt 0.775630 0.608982
vt 0.792773 0.603268
vt 0.795630 0.566125
vt 0.792773 0.508982
vt 0.942857 0.792773
vt 0.882857 0.769916
vt 0.057143 0.792773
vt 0.117143 0.769916
vt 0.802857 0.506125
vt 0.811429 0.483268
vt 0.842857 0.500410
vt 0.825714 0.517553
vt 0.157143 0.500410
vt 0.188571 0.483268
vt 0.197143 0.506125
vt 0.174286 0.517553
vt 0.865714 0.523268
vt 0.851429 0.540410
vt 0.134286 0.523268
vt 0.148571 0.540410
vt 0.885714 0.546125
vt 0.871429 0.563268
vt 0.114286 0.546125
vt 0.128571 0.563268
vt 0.905714 0.554696
vt 0.897143 0.577553
vt 0.094286 0.554696
vt 0.102857 0.577553
vt 0.880000 0.597553
vt 0.848571 0.583268
vt 0.151429 0.583268
vt 0.120000 0.597553
vt 0.825714 0.563268
vt 0.174286 0.563268
vt 0.808571 0.540410
vt 0.191429 0.540410
vt 0.780000 0.511839
vt 0.220000 0.511839
vt 0.842857 0.738488
vt 0.157143 0.738488
vt 0.882857 0.477553
vt 0.822857 0.471839
vt 0.117143 0.477553
vt 0.177143 0.471839
vt 0.942857 0.508982
vt 0.057143 0.508982
vt 0.960000 0.566125
vt 0.040000 0.566125
vt 0.934286 0.603268
vt 0.065714 0.603268
vt 0.880000 0.735630
vt 0.782857 0.661345
vt 0.788571 0.735630
vt 0.880000 0.795630
vt 0.211429 0.735630
vt 0.217143 0.661345
vt 0.120000 0.735630
vt 0.120000 0.795630
vt 0.968571 0.772773
vt 0.980000 0.809916
vt 0.031429 0.772773
vt 0.020000 0.809916
vt 0.769916 0.594696
vt 0.772773 0.497553
vt 0.809916 0.497553
vt 0.798488 0.586125
vt 0.769916 0.663268
vt 0.815630 0.648982
vt 0.874286 0.729916
vt 0.951429 0.769916
vt 0.957143 0.815630
vt 0.874286 0.792773
vt 0.042857 0.815630
vt 0.048571 0.769916
vt 0.125714 0.729916
vt 0.125714 0.792773
vt 0.825714 0.701345
vt 0.814286 0.755630
vt 0.174286 0.701345
vt 0.185714 0.755630
vt 0.874286 0.637553
vt 0.880000 0.446125
vt 0.788571 0.431839
vt 0.814286 0.617553
vt 0.211429 0.431839
vt 0.120000 0.446125
vt 0.125714 0.637553
vt 0.185714 0.617553
vt 0.957143 0.648982
vt 0.980000 0.497553
vt 0.020000 0.497553
vt 0.042857 0.648982
vt 1.000000 0.586125
vt 0.000000 0.586125
vt 0.701345 0.626125
vt 0.755630 0.617553
s 0
usemtl Material.001
f 47/1/1 1/2/1 3/3/1 45/4/1
f 4/5/2 2/6/2 48/7/2 46/8/2
f 45/9/3 3/10/3 5/11/3 43/12/3
f 6/11/4 4/10/4 46/9/4 44/12/4
f 3/13/5 9/14/5 7/15/5 5/16/5
f 8/17/6 10/18/6 4/19/6 6/20/6
f 1/2/7 11/21/7 9/22/7 3/3/7
f 10/23/8 12/24/8 2/6/8 4/5/8
f 11/21/9 13/25/9 15/26/9 9/22/9
f 16/27/10 14/28/10 12/24/10 10/23/10
f 9/14/11 15/29/11 17/30/11 7/15/11
f 18/31/12 16/32/12 10/18/12 8/17/12
f 15/33/13 21/34/13 19/35/13 17/36/13
f 20/35/14 22/34/14 16/33/14 18/36/14
f 13/25/15 23/37/15 21/38/15 15/26/15
f 22/39/16 24/40/16 14/28/16 16/27/16
f 23/37/17 25/41/17 27/42/17 21/38/17
f 28/43/18 26/44/18 24/40/18 22/39/18
f 21/34/19 27/45/19 29/46/19 19/35/19
f 30/46/20 28/45/20 22/34/20 20/35/20
f 27/29/21 33/14/21 31/15/21 29/30/21
f 32/17/22 34/18/22 28/32/22 30/31/22
f 25/41/23 35/47/23 33/48/23 27/42/23
f 34/49/24 36/50/24 26/44/24 28/43/24
f 35/47/25 37/51/25 39/52/25 33/48/25
f 40/53/26 38/54/26 36/50/26 34/49/26
f 33/14/27 39/13/27 41/16/27 31/15/27
f 42/20/28 40/19/28 34/18/28 32/17/28
f 39/55/29 45/9/29 43/12/29 41/56/29
f 44/12/30 46/9/30 40/55/30 42/56/30
f 37/51/31 47/1/31 45/4/31 39/52/31
f 46/8/32 48/7/32 38/54/32 40/53/32
f 47/57/33 37/58/33 51/59/33 49/60/33
f 52/59/34 38/58/34 48/57/34 50/60/34
f 37/61/35 35/62/35 53/63/35 51/64/35
f 54/65/36 36/66/36 38/67/36 52/68/36
f 35/62/37 25/69/37 55/70/37 53/63/37
f 56/71/38 26/72/38 36/66/38 54/65/38
f 25/73/39 23/74/39 57/75/39 55/76/39
f 58/75/40 24/74/40 26/73/40 56/76/40
f 23/74/41 13/77/41 59/78/41 57/75/41
f 60/78/42 14/77/42 24/74/42 58/75/42
f 13/69/43 11/62/43 63/63/43 59/70/43
f 64/65/44 12/66/44 14/72/44 60/71/44
f 11/62/45 1/61/45 65/64/45 63/63/45
f 66/68/46 2/67/46 12/66/46 64/65/46
f 1/79/47 47/57/47 49/60/47 65/80/47
f 50/60/48 48/57/48 2/79/48 66/80/48
f 61/81/49 65/82/49 49/83/49
f 50/84/50 66/85/50 62/86/50
f 63/87/51 65/82/51 61/81/51
f 62/86/52 66/85/52 64/88/52
f 61/81/53 59/89/53 63/87/53
f 64/88/54 60/90/54 62/86/54
f 61/81/55 57/91/55 59/89/55
f 60/90/56 58/92/56 62/86/56
f 61/81/57 55/93/57 57/91/57
f 58/92/58 56/94/58 62/86/58
f 61/81/59 53/95/59 55/93/59
f 56/94/60 54/96/60 62/86/60
f 61/81/61 51/97/61 53/95/61
f 54/96/62 52/98/62 62/86/62
f 61/81/63 49/83/63 51/97/63
f 52/98/64 50/84/64 62/86/64
f 89/99/65 174/100/65 176/101/65 91/102/65
f 176/101/66 175/103/66 90/104/66 91/102/66
f 87/105/67 172/106/67 174/100/67 89/99/67
f 175/103/68 173/107/68 88/108/68 90/104/68
f 85/109/69 170/110/69 172/111/69 87/112/69
f 173/113/70 171/114/70 86/115/70 88/116/70
f 83/117/71 168/118/71 170/119/71 85/120/71
f 171/119/72 169/118/72 84/117/72 86/120/72
f 81/121/73 166/122/73 168/118/73 83/117/73
f 169/118/74 167/122/74 82/121/74 84/117/74
f 79/123/75 92/124/75 146/125/75 164/126/75
f 147/127/76 93/128/76 80/129/76 165/130/76
f 92/124/77 94/131/77 148/132/77 146/125/77
f 149/133/78 95/134/78 93/128/78 147/127/78
f 94/135/79 96/136/79 150/137/79 148/138/79
f 151/137/80 97/136/80 95/135/80 149/138/80
f 96/139/81 98/140/81 152/141/81 150/142/81
f 153/143/82 99/144/82 97/145/82 151/146/82
f 98/140/83 100/147/83 154/148/83 152/141/83
f 155/149/84 101/150/84 99/144/84 153/143/84
f 100/151/85 102/152/85 156/153/85 154/154/85
f 157/155/86 103/156/86 101/157/86 155/158/86
f 102/159/87 104/160/87 158/161/87 156/162/87
f 159/161/88 105/160/88 103/159/88 157/162/88
f 104/163/89 106/164/89 160/165/89 158/166/89
f 161/167/90 107/168/90 105/169/90 159/170/90
f 106/171/91 108/172/91 162/173/91 160/174/91
f 163/173/92 109/172/92 107/171/92 161/174/92
f 108/175/93 67/176/93 68/177/93 162/178/93
f 68/177/94 67/176/94 109/179/94 163/180/94
f 110/181/95 128/182/95 160/165/95 162/178/95
f 161/167/96 129/183/96 111/184/96 163/180/96
f 128/182/97 179/185/97 158/166/97 160/165/97
f 159/170/98 180/186/98 129/183/98 161/167/98
f 126/187/99 156/188/99 158/166/99 179/185/99
f 159/170/100 157/189/100 127/190/100 180/186/100
f 124/191/101 154/148/101 156/188/101 126/187/101
f 157/189/102 155/149/102 125/192/102 127/190/102
f 122/193/103 152/141/103 154/148/103 124/191/103
f 155/149/104 153/143/104 123/194/104 125/192/104
f 120/195/105 150/142/105 152/141/105 122/193/105
f 153/143/106 151/146/106 121/196/106 123/194/106
f 118/197/107 148/198/107 150/142/107 120/195/107
f 151/146/108 149/199/108 119/200/108 121/196/108
f 116/201/109 146/202/109 148/198/109 118/197/109
f 149/199/110 147/203/110 117/204/110 119/200/110
f 114/26/111 164/205/111 146/202/111 116/201/111
f 147/203/112 165/206/112 115/27/112 117/204/112
f 114/26/113 181/207/113 177/208/113 164/205/113
f 177/208/114 182/209/114 115/27/114 165/206/114
f 110/181/115 162/178/115 68/177/115 112/210/115
f 68/177/116 163/180/116 111/184/116 113/211/116
f 112/210/117 68/177/117 178/212/117 183/213/117
f 178/212/118 68/177/118 113/211/118 184/214/118
f 177/208/119 181/207/119 183/213/119 178/212/119
f 184/214/120 182/209/120 177/208/120 178/212/120
f 135/215/121 137/216/121 176/217/121 174/218/121
f 176/217/122 137/216/122 136/219/122 175/220/122
f 133/221/123 135/215/123 174/218/123 172/111/123
f 175/220/124 136/219/124 134/222/124 173/113/124
f 131/223/125 133/221/125 172/111/125 170/110/125
f 173/113/126 134/222/126 132/224/126 171/114/126
f 166/225/127 187/226/127 185/227/127 168/228/127
f 186/229/128 188/230/128 167/231/128 169/232/128
f 131/223/129 170/110/129 168/228/129 185/227/129
f 169/232/130 171/114/130 132/224/130 186/229/130
f 144/233/131 190/234/131 189/235/131 187/226/131
f 189/235/132 190/234/132 145/236/132 188/230/132
f 185/227/133 187/226/133 189/235/133 69/237/133
f 189/235/134 188/230/134 186/229/134 69/237/134
f 130/238/135 131/223/135 185/227/135 69/237/135
f 186/229/135 132/224/135 130/238/135 69/237/135
f 142/239/136 193/240/136 191/241/136 144/242/136
f 192/241/137 194/240/137 143/239/137 145/242/137
f 140/243/138 195/244/138 193/240/138 142/239/138
f 194/240/139 196/244/139 141/243/139 143/239/139
f 139/245/140 197/246/140 195/247/140 140/248/140
f 196/249/141 198/250/141 139/245/141 141/251/141
f 138/252/142 71/253/142 197/254/142 139/255/142
f 198/254/143 71/253/143 138/252/143 139/255/143
f 190/245/144 144/256/144 191/257/144 70/258/144
f 192/259/145 145/260/145 190/245/145 70/258/145
f 70/261/146 191/262/146 206/263/146 208/264/146
f 207/265/147 192/266/147 70/261/147 208/264/147
f 71/253/148 199/267/148 200/268/148 197/254/148
f 201/268/149 199/267/149 71/253/149 198/254/149
f 197/246/150 200/269/150 202/270/150 195/247/150
f 203/271/151 201/272/151 198/250/151 196/249/151
f 195/244/152 202/273/152 204/274/152 193/240/152
f 205/274/153 203/273/153 196/244/153 194/240/153
f 193/275/154 204/276/154 206/277/154 191/257/154
f 207/278/155 205/279/155 194/280/155 192/259/155
f 199/281/156 204/282/156 202/283/156 200/284/156
f 203/285/157 205/286/157 199/281/157 201/287/157
f 199/281/158 208/264/158 206/263/158 204/282/158
f 207/265/159 208/264/159 199/281/159 205/286/159
f 139/288/160 140/289/160 164/205/160 177/208/160
f 165/206/161 141/290/161 139/288/161 177/208/161
f 140/289/162 142/291/162 211/292/162 164/205/162
f 212/293/163 143/294/163 141/290/163 165/206/163
f 142/291/164 144/233/164 213/295/164 211/292/164
f 214/296/165 145/236/165 143/294/165 212/293/165
f 144/233/166 187/226/166 166/225/166 213/295/166
f 167/231/167 188/230/167 145/236/167 214/296/167
f 81/121/168 209/297/168 213/298/168 166/122/168
f 214/298/169 210/297/169 82/121/169 167/122/169
f 209/297/170 215/299/170 211/300/170 213/298/170
f 212/300/171 216/299/171 210/297/171 214/298/171
f 79/301/172 164/302/172 211/300/172 215/299/172
f 212/300/173 165/302/173 80/301/173 216/299/173
f 131/223/174 130/238/174 72/303/174 222/304/174
f 72/303/175 130/238/175 132/224/175 223/305/175
f 133/221/176 131/223/176 222/304/176 220/306/176
f 223/305/177 132/224/177 134/222/177 221/307/177
f 135/215/178 133/221/178 220/306/178 218/308/178
f 221/307/179 134/222/179 136/219/179 219/309/179
f 137/216/180 135/215/180 218/308/180 217/310/180
f 219/309/181 136/219/181 137/216/181 217/310/181
f 217/311/182 218/312/182 229/313/182 231/314/182
f 230/315/183 219/316/183 217/311/183 231/314/183
f 218/312/184 220/317/184 227/318/184 229/313/184
f 228/319/185 221/320/185 219/316/185 230/315/185
f 220/321/186 222/322/186 225/323/186 227/324/186
f 226/323/187 223/322/187 221/321/187 228/324/187
f 222/325/188 72/326/188 224/327/188 225/328/188
f 224/327/189 72/326/189 223/329/189 226/330/189
f 224/331/190 231/332/190 229/333/190 225/334/190
f 230/335/191 231/332/191 224/331/191 226/336/191
f 225/334/192 229/333/192 227/337/192
f 228/338/193 230/335/193 226/336/193
f 183/213/194 181/207/194 234/339/194 232/340/194
f 235/341/195 182/209/195 184/214/195 233/342/195
f 112/210/196 183/213/196 232/340/196 254/343/196
f 233/342/197 184/214/197 113/211/197 255/344/197
f 110/181/198 112/210/198 254/343/198 256/345/198
f 255/344/199 113/211/199 111/184/199 257/346/199
f 181/207/200 114/26/200 252/347/200 234/339/200
f 253/348/201 115/27/201 182/209/201 235/341/201
f 114/29/202 116/349/202 250/350/202 252/351/202
f 251/352/203 117/353/203 115/32/203 253/354/203
f 116/201/204 118/197/204 248/355/204 250/356/204
f 249/357/205 119/200/205 117/204/205 251/358/205
f 118/197/206 120/195/206 246/359/206 248/355/206
f 247/360/207 121/196/207 119/200/207 249/357/207
f 120/195/208 122/193/208 244/361/208 246/359/208
f 245/362/209 123/194/209 121/196/209 247/360/209
f 122/193/210 124/191/210 242/363/210 244/361/210
f 243/364/211 125/192/211 123/194/211 245/362/211
f 124/191/212 126/187/212 240/365/212 242/363/212
f 241/366/213 127/190/213 125/192/213 243/364/213
f 126/187/214 179/185/214 236/367/214 240/365/214
f 237/368/215 180/186/215 127/190/215 241/366/215
f 179/185/216 128/182/216 238/369/216 236/367/216
f 239/370/217 129/183/217 180/186/217 237/368/217
f 128/182/218 110/181/218 256/345/218 238/369/218
f 257/346/219 111/184/219 129/183/219 239/370/219
f 238/369/220 256/345/220 258/371/220 276/372/220
f 259/373/221 257/346/221 239/370/221 277/374/221
f 236/367/222 238/369/222 276/372/222 278/375/222
f 277/374/223 239/370/223 237/368/223 279/376/223
f 240/365/224 236/367/224 278/375/224 274/377/224
f 279/376/225 237/368/225 241/366/225 275/378/225
f 242/379/226 240/380/226 274/381/226 272/382/226
f 275/383/227 241/384/227 243/385/227 273/386/227
f 244/361/228 242/363/228 272/387/228 270/388/228
f 273/389/229 243/364/229 245/362/229 271/390/229
f 246/359/230 244/361/230 270/388/230 268/391/230
f 271/390/231 245/362/231 247/360/231 269/392/231
f 248/355/232 246/359/232 268/391/232 266/393/232
f 269/392/233 247/360/233 249/357/233 267/394/233
f 250/356/234 248/355/234 266/393/234 264/395/234
f 267/394/235 249/357/235 251/358/235 265/396/235
f 252/347/236 250/356/236 264/395/236 262/397/236
f 265/396/237 251/358/237 253/348/237 263/398/237
f 234/339/238 252/347/238 262/397/238 280/399/238
f 263/398/239 253/348/239 235/341/239 281/400/239
f 256/345/240 254/343/240 260/401/240 258/371/240
f 261/402/241 255/344/241 257/346/241 259/373/241
f 254/403/242 232/404/242 282/405/242 260/406/242
f 283/405/243 233/404/243 255/403/243 261/406/243
f 232/404/244 234/407/244 280/408/244 282/405/244
f 281/408/245 235/407/245 233/404/245 283/405/245
f 67/245/246 108/409/246 284/410/246 73/411/246
f 285/412/247 109/413/247 67/245/247 73/411/247
f 108/172/248 106/171/248 286/414/248 284/415/248
f 287/414/249 107/171/249 109/172/249 285/415/249
f 106/416/250 104/417/250 288/418/250 286/419/250
f 289/420/251 105/421/251 107/422/251 287/423/251
f 104/417/252 102/152/252 290/424/252 288/418/252
f 291/425/253 103/156/253 105/421/253 289/420/253
f 102/152/254 100/151/254 292/426/254 290/424/254
f 293/427/255 101/157/255 103/156/255 291/425/255
f 100/151/256 98/428/256 294/429/256 292/426/256
f 295/430/257 99/431/257 101/157/257 293/427/257
f 98/432/258 96/136/258 296/433/258 294/434/258
f 297/433/259 97/136/259 99/432/259 295/434/259
f 96/435/260 94/131/260 298/436/260 296/437/260
f 299/438/261 95/134/261 97/439/261 297/440/261
f 94/131/262 92/124/262 300/441/262 298/436/262
f 301/442/263 93/128/263 95/134/263 299/438/263
f 308/443/264 309/444/264 328/445/264 338/446/264
f 329/447/265 309/444/265 308/443/265 339/448/265
f 307/449/266 308/443/266 338/446/266 336/450/266
f 339/448/267 308/443/267 307/449/267 337/451/267
f 306/452/268 307/449/268 336/450/268 340/453/268
f 337/451/269 307/449/269 306/452/269 341/454/269
f 89/99/270 91/102/270 306/455/270 340/456/270
f 306/455/271 91/102/271 90/104/271 341/457/271
f 87/105/272 89/99/272 340/456/272 334/458/272
f 341/457/273 90/104/273 88/108/273 335/459/273
f 85/120/274 87/460/274 334/461/274 330/462/274
f 335/461/275 88/460/275 86/120/275 331/462/275
f 83/117/276 85/120/276 330/462/276 332/463/276
f 331/462/277 86/120/277 84/117/277 333/463/277
f 330/464/278 336/450/278 338/446/278 332/465/278
f 339/448/279 337/451/279 331/466/279 333/467/279
f 330/464/280 334/468/280 340/453/280 336/450/280
f 341/454/281 335/469/281 331/466/281 337/451/281
f 326/470/282 332/463/282 338/471/282 328/472/282
f 339/471/283 333/463/283 327/470/283 329/472/283
f 81/121/284 83/117/284 332/463/284 326/470/284
f 333/463/285 84/117/285 82/121/285 327/470/285
f 209/297/286 342/473/286 344/474/286 215/299/286
f 345/474/287 343/473/287 210/297/287 216/299/287
f 81/121/288 326/470/288 342/473/288 209/297/288
f 343/473/289 327/470/289 82/121/289 210/297/289
f 79/301/290 215/299/290 344/474/290 346/475/290
f 345/474/291 216/299/291 80/301/291 347/475/291
f 79/123/292 346/476/292 300/441/292 92/124/292
f 301/442/293 347/477/293 80/129/293 93/128/293
f 77/478/294 324/479/294 352/480/294 304/481/294
f 353/482/295 325/483/295 77/478/295 304/481/295
f 304/484/296 352/485/296 350/486/296 78/487/296
f 351/488/297 353/489/297 304/484/297 78/487/297
f 78/487/298 350/486/298 348/490/298 305/491/298
f 349/492/299 351/488/299 78/487/299 305/491/299
f 305/491/300 348/490/300 328/493/300 309/494/300
f 329/495/301 349/492/301 305/491/301 309/494/301
f 326/470/302 328/472/302 348/496/302 342/473/302
f 349/496/303 329/472/303 327/470/303 343/473/303
f 296/433/304 298/497/304 318/498/304 310/499/304
f 319/498/305 299/497/305 297/433/305 311/499/305
f 76/500/306 316/501/306 324/479/306 77/478/306
f 325/483/307 317/502/307 76/500/307 77/478/307
f 302/503/308 358/504/308 356/505/308 303/506/308
f 357/507/309 359/508/309 302/503/309 303/506/309
f 303/506/310 356/505/310 354/509/310 75/510/310
f 355/511/311 357/507/311 303/506/311 75/510/311
f 75/512/312 354/513/312 316/501/312 76/500/312
f 317/502/313 355/514/313 75/512/313 76/500/313
f 292/426/314 294/429/314 362/515/314 364/516/314
f 363/517/315 295/430/315 293/427/315 365/518/315
f 364/516/316 362/515/316 368/519/316 366/520/316
f 369/521/317 363/517/317 365/518/317 367/522/317
f 366/520/318 368/519/318 370/523/318 372/524/318
f 371/525/319 369/521/319 367/522/319 373/526/319
f 372/527/320 370/528/320 376/529/320 374/530/320
f 377/529/321 371/528/321 373/527/321 375/530/321
f 314/531/322 378/532/322 374/533/322 376/534/322
f 375/535/323 379/536/323 315/537/323 377/538/323
f 316/501/324 354/513/324 374/533/324 378/532/324
f 375/535/325 355/514/325 317/502/325 379/536/325
f 354/509/326 356/505/326 372/524/326 374/539/326
f 373/526/327 357/507/327 355/511/327 375/540/327
f 356/541/328 358/542/328 366/543/328 372/527/328
f 367/543/329 359/542/329 357/541/329 373/527/329
f 358/542/330 360/544/330 364/545/330 366/543/330
f 365/545/331 361/544/331 359/542/331 367/543/331
f 290/424/332 292/426/332 364/516/332 360/546/332
f 365/518/333 293/427/333 291/425/333 361/547/333
f 74/548/334 360/549/334 358/550/334 302/512/334
f 359/551/335 361/552/335 74/548/335 302/512/335
f 284/553/336 286/554/336 288/555/336 290/556/336
f 289/557/337 287/558/337 285/559/337 291/560/337
f 284/410/338 290/424/338 360/546/338 74/561/338
f 361/547/339 291/425/339 285/412/339 74/561/339
f 73/562/340 284/553/340 74/548/340
f 74/548/341 285/559/341 73/562/341
f 294/434/342 296/433/342 310/499/342 362/563/342
f 311/499/343 297/433/343 295/434/343 363/563/343
f 310/499/344 312/564/344 368/565/344 362/563/344
f 369/565/345 313/564/345 311/499/345 363/563/345
f 312/564/346 382/566/346 370/528/346 368/565/346
f 371/528/347 383/566/347 313/564/347 369/565/347
f 314/567/348 376/529/348 370/528/348 382/566/348
f 371/528/349 377/529/349 315/567/349 383/566/349
f 348/496/350 350/568/350 386/569/350 384/570/350
f 387/569/351 351/568/351 349/496/351 385/570/351
f 318/571/352 384/572/352 386/573/352 320/574/352
f 387/575/353 385/576/353 319/577/353 321/578/353
f 298/436/354 300/441/354 384/572/354 318/571/354
f 385/576/355 301/442/355 299/438/355 319/577/355
f 300/441/356 344/579/356 342/580/356 384/572/356
f 343/581/357 345/582/357 301/442/357 385/576/357
f 342/473/358 348/496/358 384/570/358
f 385/570/359 349/496/359 343/473/359
f 300/583/360 346/584/360 344/585/360
f 345/586/361 347/587/361 301/588/361
f 314/531/362 322/589/362 380/590/362 378/532/362
f 381/591/363 323/592/363 315/537/363 379/536/363
f 316/501/364 378/532/364 380/590/364 324/479/364
f 381/591/365 379/536/365 317/502/365 325/483/365
f 320/574/366 386/573/366 380/593/366 322/594/366
f 381/595/367 387/575/367 321/578/367 323/596/367
f 350/568/368 352/597/368 380/598/368 386/569/368
f 381/598/369 353/597/369 351/568/369 387/569/369
f 324/479/370 380/590/370 352/480/370
f 353/482/371 381/591/371 325/483/371
f 400/599/372 388/600/372 414/601/372 402/602/372
f 415/603/373 389/604/373 401/605/373 403/606/373
f 400/599/374 402/602/374 404/607/374 398/608/374
f 405/609/375 403/606/375 401/605/375 399/610/375
f 398/608/376 404/607/376 406/611/376 396/612/376
f 407/613/377 405/609/377 399/610/377 397/614/377
f 396/612/378 406/611/378 408/615/378 394/616/378
f 409/617/379 407/613/379 397/614/379 395/618/379
f 394/616/380 408/615/380 410/619/380 392/620/380
f 411/621/381 409/617/381 395/618/381 393/622/381
f 392/620/382 410/619/382 412/623/382 390/624/382
f 413/625/383 411/621/383 393/622/383 391/626/383
f 410/627/384 420/628/384 418/629/384 412/630/384
f 419/631/385 421/632/385 411/633/385 413/634/385
f 408/635/386 422/636/386 420/628/386 410/627/386
f 421/632/387 423/637/387 409/638/387 411/633/387
f 406/639/388 424/640/388 422/641/388 408/642/388
f 423/641/389 425/640/389 407/639/389 409/642/389
f 404/607/390 426/643/390 424/644/390 406/611/390
f 425/645/391 427/646/391 405/609/391 407/613/391
f 402/602/392 428/647/392 426/643/392 404/607/392
f 427/646/393 429/648/393 403/606/393 405/609/393
f 402/649/394 414/650/394 416/651/394 428/652/394
f 417/651/395 415/650/395 403/649/395 429/652/395
f 318/498/396 320/653/396 444/654/396 442/655/396
f 445/654/397 321/653/397 319/498/397 443/655/397
f 320/656/398 390/624/398 412/623/398 444/657/398
f 413/625/399 391/626/399 321/658/399 445/659/399
f 310/499/400 318/498/400 442/655/400 312/564/400
f 443/655/401 319/498/401 311/499/401 313/564/401
f 382/660/402 430/661/402 414/601/402 388/600/402
f 415/603/403 431/662/403 383/663/403 389/604/403
f 412/630/404 418/629/404 440/664/404 444/665/404
f 441/666/405 419/631/405 413/634/405 445/667/405
f 438/668/406 446/669/406 444/657/406 440/670/406
f 445/659/407 447/671/407 439/672/407 441/673/407
f 434/674/408 446/669/408 438/668/408 436/675/408
f 439/672/409 447/671/409 435/676/409 437/677/409
f 432/678/410 448/679/410 446/680/410 434/681/410
f 447/680/411 449/679/411 433/678/411 435/681/411
f 430/661/412 448/682/412 432/683/412 450/684/412
f 433/685/413 449/686/413 431/662/413 451/687/413
f 414/601/414 430/661/414 450/684/414 416/688/414
f 451/687/415 431/662/415 415/603/415 417/689/415
f 312/564/416 448/679/416 430/690/416 382/566/416
f 431/690/417 449/679/417 313/564/417 383/566/417
f 312/564/418 442/655/418 446/680/418 448/679/418
f 447/680/419 443/655/419 313/564/419 449/679/419
f 442/655/420 444/654/420 446/680/420
f 447/680/421 445/654/421 443/655/421
f 416/651/422 450/691/422 452/692/422 476/693/422
f 453/692/423 451/691/423 417/651/423 477/693/423
f 450/691/424 432/678/424 462/694/424 452/692/424
f 463/694/425 433/678/425 451/691/425 453/692/425
f 432/695/426 434/696/426 460/697/426 462/698/426
f 461/699/427 435/700/427 433/701/427 463/702/427
f 434/696/428 436/703/428 458/704/428 460/697/428
f 459/705/429 437/706/429 435/700/429 461/699/429
f 436/707/430 438/708/430 456/709/430 458/710/430
f 457/709/431 439/708/431 437/707/431 459/710/431
f 438/711/432 440/664/432 454/712/432 456/713/432
f 455/714/433 441/666/433 439/715/433 457/716/433
f 440/664/434 418/629/434 474/717/434 454/712/434
f 475/718/435 419/631/435 441/666/435 455/714/435
f 428/719/436 416/720/436 476/721/436 464/722/436
f 477/723/437 417/724/437 429/725/437 465/726/437
f 426/727/438 428/719/438 464/722/438 466/728/438
f 465/726/439 429/725/439 427/729/439 467/730/439
f 424/640/440 426/731/440 466/732/440 468/733/440
f 467/732/441 427/731/441 425/640/441 469/733/441
f 422/641/442 424/640/442 468/733/442 470/734/442
f 469/733/443 425/640/443 423/641/443 471/734/443
f 420/628/444 422/636/444 470/735/444 472/736/444
f 471/737/445 423/637/445 421/632/445 473/738/445
f 418/629/446 420/628/446 472/736/446 474/717/446
f 473/738/447 421/632/447 419/631/447 475/718/447
f 458/739/448 456/740/448 480/741/448 478/742/448
f 481/743/449 457/744/449 459/745/449 479/746/449
f 478/742/450 480/741/450 482/747/450 484/748/450
f 483/749/451 481/743/451 479/746/451 485/750/451
f 484/748/452 482/747/452 488/751/452 486/752/452
f 489/753/453 483/749/453 485/750/453 487/754/453
f 486/752/454 488/751/454 490/755/454 492/756/454
f 491/757/455 489/753/455 487/754/455 493/758/455
f 464/759/456 476/760/456 486/752/456 492/756/456
f 487/754/457 477/761/457 465/762/457 493/758/457
f 452/763/458 484/748/458 486/752/458 476/760/458
f 487/754/459 485/750/459 453/764/459 477/761/459
f 452/763/460 462/765/460 478/742/460 484/748/460
f 479/746/461 463/766/461 453/764/461 485/750/461
f 458/739/462 478/742/462 462/765/462 460/767/462
f 463/766/463 479/746/463 459/745/463 461/768/463
f 454/712/464 474/717/464 480/769/464 456/713/464
f 481/770/465 475/718/465 455/714/465 457/716/465
f 472/771/466 482/747/466 480/741/466 474/772/466
f 481/743/467 483/749/467 473/773/467 475/774/467
f 470/775/468 488/751/468 482/747/468 472/771/468
f 483/749/469 489/753/469 471/776/469 473/773/469
f 468/777/470 490/755/470 488/751/470 470/775/470
f 489/753/471 491/757/471 469/778/471 471/776/471
f 466/779/472 492/756/472 490/755/472 468/777/472
f 491/757/473 493/758/473 467/780/473 469/778/473
f 464/759/474 492/756/474 466/779/474
f 467/780/475 493/758/475 465/762/475
f 392/781/476 390/782/476 504/783/476 502/784/476
f 505/785/477 391/786/477 393/787/477 503/788/477
f 394/789/478 392/781/478 502/784/478 500/790/478
f 503/788/479 393/787/479 395/791/479 501/792/479
f 396/793/480 394/794/480 500/795/480 498/796/480
f 501/795/481 395/794/481 397/793/481 499/796/481
f 398/797/482 396/793/482 498/796/482 496/798/482
f 499/796/483 397/793/483 399/797/483 497/798/483
f 400/799/484 398/800/484 496/801/484 494/802/484
f 497/803/485 399/804/485 401/805/485 495/806/485
f 388/807/486 400/799/486 494/802/486 506/808/486
f 495/806/487 401/805/487 389/809/487 507/810/487
f 494/811/488 502/812/488 504/813/488 506/814/488
f 505/815/489 503/816/489 495/817/489 507/818/489
f 494/811/490 496/819/490 500/820/490 502/812/490
f 501/821/491 497/822/491 495/817/491 503/816/491
f 496/819/492 498/823/492 500/820/492
f 501/821/493 499/824/493 497/822/493
f 314/567/494 382/566/494 388/825/494 506/826/494
f 389/825/495 383/566/495 315/567/495 507/826/495
f 314/531/496 506/814/496 504/813/496 322/589/496
f 505/815/497 507/818/497 315/537/497 323/592/497
f 320/574/498 322/594/498 504/783/498 390/782/498
f 505/785/499 323/596/499 321/578/499 391/786/499
