# Blender 3.6.4
# www.blender.org
mtllib floor.mtl
o Plane
v -11.247462 0.000000 11.247462
v 11.247462 0.000000 11.247462
v -11.247462 0.000000 -11.247462
v 11.247462 0.000000 -11.247462
v -11.247462 1.000000 -11.247462
v -11.247462 1.000000 11.247462
v 11.247462 1.000000 11.247462
v 11.247462 1.000000 -11.247462
vn -0.0000 -1.0000 -0.0000
vn -0.0000 1.0000 -0.0000
vn -1.0000 -0.0000 -0.0000
vn -0.0000 -0.0000 -1.0000
vn -0.0000 -0.0000 1.0000
vn 1.0000 -0.0000 -0.0000
vt 0.000000 0.000000
vt 0.000000 1.000000
vt 1.000000 1.000000
vt 1.000000 0.000000
vt 0.044454 -0.000000
vt 0.044455 1.000000
vt 0.000000 1.000000
vt 0.088909 -0.000000
vt 0.088909 1.000000
vt 0.044455 1.000000
vt 0.044455 -0.000000
vt 0.133364 -0.000000
vt 0.133364 1.000000
vt 0.088909 1.000000
vt 0.088909 -0.000000
vt 0.177818 -0.000000
vt 0.177818 1.000000
vt 0.133364 1.000000
vt 0.133364 -0.000000
s 0
usemtl purple
f 1/1/1 3/2/1 4/3/1 2/4/1
f 6/1/2 7/4/2 8/3/2 5/2/2
f 3/5/3 1/6/3 6/7/3 5/1/3
f 4/8/4 3/9/4 5/10/4 8/11/4
f 1/12/5 2/13/5 7/14/5 6/15/5
f 2/16/6 4/17/6 8/18/6 7/19/6
