# Blender 3.6.4
# www.blender.org
mtllib prototype.mtl
o Prototype
v -10.000000 -1.000000 10.000000
v -10.000000 1.000000 10.000000
v -10.000000 -1.000000 -10.000000
v -10.000000 1.000000 -10.000000
v 10.000000 -1.000000 10.000000
v 10.000000 1.000000 10.000000
v 10.000000 -1.000000 -10.000000
v 10.000000 1.000000 -10.000000
v -12.000000 -1.000000 -10.000000
v -12.000000 -1.000000 10.000000
v -12.000000 1.000000 10.000000
v -12.000000 1.000000 -10.000000
v -10.000000 13.000000 10.000000
v -10.000000 13.000000 -10.000000
v -12.000000 13.000000 10.000000
v -12.000000 13.000000 -10.000000
v -10.000000 1.000000 10.000000
v -10.000000 1.000000 -10.000000
v -10.000000 13.000000 10.000000
v -10.000000 13.000000 -10.000000
v -10.000000 1.000000 -12.000000
v -10.000000 -1.000000 -12.000000
v 10.000000 -1.000000 -12.000000
v 10.000000 1.000000 -12.000000
v -10.000000 13.000000 -10.000000
v 10.000000 13.000000 -10.000000
v -10.000000 13.000000 -12.000000
v 10.000000 13.000000 -12.000000
vn -0.0000 -0.0000 1.0000
vn 1.0000 -0.0000 -0.0000
vn -0.0000 -1.0000 -0.0000
vn -0.0000 1.0000 -0.0000
vn -1.0000 -0.0000 -0.0000
vn -0.0000 -0.0000 -1.0000
vt 0.000000 0.000000
vt 0.000000 1.000000
vt 1.000000 1.000000
vt 1.000000 0.000000
vt 0.125000 0.500000
vt 0.375000 0.500000
vt 0.375000 0.750000
vt 0.125000 0.750000
vt 2.000000 2.000000
vt -1.000000 2.000000
vt -1.000000 -1.000000
vt 2.000000 -1.000000
vt 0.295455 -0.204545
vt 0.295455 0.704545
vt 0.204545 0.704545
vt 0.204545 -0.204545
vt -2.137157 -0.942897
vt 3.137157 -0.942897
vt 3.137157 1.942897
vt -2.137157 1.942897
vt 1.204545 0.704545
vt 1.204545 0.795455
vt 0.295455 0.795455
vt -1.061984 -0.304959
vt 2.061984 -0.304959
vt 2.061984 1.304959
vt -1.061984 1.304959
s 0
usemtl purple
f 1/1/1 2/2/1 11/2/1 10/1/1
f 8/3/2 7/4/2 23/4/2 24/3/2
f 7/4/2 8/3/2 6/2/2 5/1/2
f 5/4/1 6/3/1 2/2/1 1/1/1
f 3/5/3 7/6/3 5/7/3 1/8/3
f 8/9/4 4/10/4 2/11/4 6/12/4
f 10/1/5 11/2/5 12/3/5 9/4/5
f 3/5/3 1/8/3 10/8/3 9/5/3
f 4/2/6 3/1/6 9/1/6 12/2/6
f 22/1/6 21/2/6 24/3/6 23/4/6
f 7/6/3 3/5/3 22/5/3 23/6/3
f 3/1/5 4/2/5 21/2/5 22/1/5
f 21/2/5 4/2/5 25/2/5 27/2/5
f 8/3/2 24/3/2 28/3/2 26/3/2
usemtl grey
f 13/13/4 14/14/4 16/15/4 15/16/4
f 4/2/6 12/2/6 16/2/6 14/2/6
f 11/2/1 2/2/1 13/2/1 15/2/1
f 12/3/5 11/2/5 15/2/5 16/3/5
f 17/17/2 18/18/2 20/19/2 19/20/2
f 24/3/6 21/2/6 27/2/6 28/3/6
f 25/14/4 26/21/4 28/22/4 27/23/4
usemtl green
f 4/24/1 8/25/1 26/26/1 25/27/1
